<mxfile host="65bd71144e">
    <diagram id="OK0f9ROEUplW_UL2D4uH" name="Page-1">
        <mxGraphModel dx="1433" dy="1522" grid="1" gridSize="10" guides="1" tooltips="1" connect="1" arrows="1" fold="1" page="1" pageScale="1" pageWidth="827" pageHeight="1169" math="0" shadow="0">
            <root>
                <mxCell id="0"/>
                <mxCell id="1" parent="0"/>
                <mxCell id="_G9GZHHv7lRjszB7tqQw-6" value="" style="rounded=0;whiteSpace=wrap;html=1;fillColor=none;" parent="1" vertex="1">
                    <mxGeometry x="-10" y="-2.4300000000000637" width="830" height="570" as="geometry"/>
                </mxCell>
                <mxCell id="_G9GZHHv7lRjszB7tqQw-2" value="" style="shape=image;verticalLabelPosition=bottom;labelBackgroundColor=default;verticalAlign=top;aspect=fixed;imageAspect=0;image=data:image/png,iVBORw0KGgoAAAANSUhEUgAAAQwAAADQCAYAAADyB19zAAAAAXNSR0IArs4c6QAAAARnQU1BAACxjwv8YQUAAAAJcEhZcwAAEnQAABJ0Ad5mH3gAAJcASURBVHhe7f1pkGRZdh6InXCPfcnIPWvr6u7qbjS2JsAmQLCxEAt3gCDNZghwpFnMZsZM+imZ6Zd+UX/0TyOzkY2ZZGP8MRJFEjPADASICwgCBECCxEKA2Bvd1V1d1bVXZWVmZWZkxuLuETrfOfd7fvzEfc+fR0RWFSh+Hvfde89+77v3+n3Pn3ssTSaTk6WlJUHqg5OTE8uzPOk1QDbza7Qa6CfKRlqMo2aPMjU7XcjyqGfdKBN5pEeAn+ltNmu22mjRZrbVhqw3D3181OIEYj37nBdHm80IyHTxI6KvRWy2+Yh02u4bSx+0+c3oK9cXsMX2ZNiCgcJgMDBCdPwkOqEvuoJeFLkduYOzr7O0O9rOaONlv0SkI0e9JlullZxU1S6vgZZBnS5uU1U991o2e1ZHBX/HZt9iMLoRC4ok6npoyAojeTHIKxrilAxSFlk6UX9WAEW5Fq/3g7fBqguh1lc11OSs/RbDFDXaopgXE3jHx8dNuYYYB3PQanSgzQ7RFhPpg3kGPiw86bii/bbyIoBely75fexThnnbSazTPGFCNVwlTGUZh5dtsSggCTn4jUoD43hGzMg4f4YN8ZIIFOEVuaXAI9FJ2m6rUoATwrKFUOurGvrKdcH7d76dJxFTlGUZOdM8tMk0tnQwAr2MXQTgC3hS/s5iv0/7z9pHjAfI+tFmjDv7mu+bPiATyy0wX/rOtTQsdRxQV99GKLon2GGUBSWYZdGB2uwi4XA6SzjOSEUjIGvddhUmhwroRd52HNgZlR2PKQRbFwj2dTwfQK4DpAHd56eOms2MNpk+8bWhJjtPH3zwZhYM5BcJOq/ZrQUL5IDBY3x9kf3WdCOP9kmLiLo1PhF50GmzR0S7AGWzXj//2LZqG050AaC+qpkt5URPuHiwC4jjgW4vC1Fz3/jqhDzxyxOD2mn8m+tijfxiSzeqpU4o1XSdbmEvqW2rBRp0LS+AL/07OZlYHCcIEHxdKKxsFsoWXReRfn3TjqhPeNynz0G2X6PV0EeOcfT1EenUJaJ85LXZAeb5ZR35kl4jGScLRdAwQTnSaw4janbpL/vNun1BWxlddKAtDiLqRp2IrFfTyWizkePo8o+6yVvNgTImYZEoBRxsmShlRWQpzLbasqoLmoa7KkJE4TeISlkWVoyFCW4EA5sIEnYWJzLRpQQFXSj0hTaATpUTKAe/0RYQ+ywi9zPBvsto+rTDXo3X5icj+qWdms0sExHla36jTuS30dsQfaCM3BaMyKChaLwNNJRBG0Cbnajbxw7QJ6Yacjys016knQXZXg2Qifzsr0t3LmZM6Tk0W0jKUD96hl0EVRyMxQUEVS3hikRGSh4r4dDSyfG+0h/L0uSx5lo+OdB0pGliWvbOXy4T4MdtYZezrKVVWRqs6YZiVdOmpm3LR8drMp4s69XQqiwvr2gql0VACdkWDE14K2t2EojXYoQMuIzecVH9uchYgNw8P7TVJdfHDrGIT6Cv3S5En090wci8GcctuhG0A/SJpwvZN8A68ujrLJjXHvJjDNEneWeJo7TGp5BeBviCoRRjwC8uB+APREy8Yzk4eCTLw319V38kJ+M9kdGeLgzvy/H4fZHxfV0TlK6LBPIlXTR8wcBCMrtg2EpjttWPRaI7BLs3ggVjQ+mrcjJcFxluaXlbxidbMlnS8squrKxfkeHaFV08dmQwUNpwQzcYa6q3ovrFsjcCBSVYA+Cuityf50E8TxmLnCfrlzmx9JEh+toj+trtQvTZ3MNAMoIyo0OC/DbMGC36WSfKALkOnNU3ADnK1uy0ATpd8tF/luvSjXF1AXKQOastTqqTgU/eslJYURXkeDLSaXygE/9Ay/syGT2QvfffktXBbVk+vi1y9K6uBW/ronFbxoe35fjonojuKrAE4X6CG5oFFiAcIaNOtMi46J88LS0hLhSws9iQwcolXTCuydLqLVlae1o3IU/LcEUXjtUbWr8lw+Ubushg8dCFBrsU7Fi0/fZxK9qv5k9H1A727zxkubbzkW1BJst1+aMf2qdul04b+ujG2M7iI6JZMAiUYyMIykRZyFCeiPpRFiCtTQZ1IOvVQBnaAaJezW72R4BGmRpqtjLmydBHLYYaLYM2a3JqWQXsT9NEZco2Xyfq8fFYHt/VxUFekaXDl/QK4yuydPSS1r8mj++/J+Mj3TGYplrRBecENz3VRXTTfFKimH5SAWjclpvKDMyi7UC8jGS1cqe1WV8KBiCsXJfBxqdkefMzegXzgi4gn5KTtU/KYP0pXVD0skatzNlknAL7vQ94HpjXdMkDmINGOdKAmn4GZbLdNr0oB+T6edHlGzi1YGRkZchSvm+jCNKRUM5ytJdlSAOoE+sxB8gDaAegbi5HmRqiThsoA0R/AHj0gRTtkR71gRqtDeZFD2pJX6ozeU93DV/T9KKml2Ty8CXZv/u6TI70ckP8smJwPNLFZKSzGD50QVB/6lC1UYdFxAoSFoiyiBiPfWUEoziwqDifwEYDEbk9t23xWYJx5+EjUzMp2Ems6uXJuu4wlmU42JbV3Wdl+dKnZXTyaXn/8FOye+uzsrapuxO7T6ImQh95XI42OlHrW/Z5376nTM1+FygPffpr80l+RI1WQ5Sp2SYoBxnaRqrpNPcwasYjrYY2ueyMZTxNijISZLIc66RRBohy1M/oI1vTjfJdsjU50rLNLti7q8pjvmBC2puuVuyCwmia26QClABZndjmwZXtxbdpXHKMD+/IaO+rsjJ+WU4OvibHB1+Xk9GbujDc0/yhjPYf2QKxxI8qZ2CWE0CDoPubgnXN/a8bpmrRqmxpQwOvOb1winlkA233YHVD15Bd3Vlc1cuVa7pY6O5j/QWZrH5CjldfkNXtZ7R7+BQre80D87J7B8e8Y3Eq58yydN7mjQ8in3+gzxio2Uc9+4hyWYeyoEWZmANRh4h8IsvVfBHNghEfDUeqOauhJss6eMxBQyINiPWsA5AGRHobaja6QHntgxlfBOzU6BcBG8Jq2hcMFPCnOdyFrTyOoKNFA7SrLBg4To7u6mbhLRmMXpPJ/lfl4N4fylAXisnhO3I8vq92Dl0HNyJNA/qaXRTUHKzOg7ns49d2HArKWuweuQyGsr6FN5zLuvt4SmTtE3rZoruNy98kk+GzsrSC+yBXVW7Z5LEouDZ6GiaN6rYKp3GEzBkzY6fvmKAO6OR1jcFF5dvQFgfyyFvUR5td0Geew2hDVMjo4hGxAVm+rQ5km12+oo+ITK/JkUb7EZFOvZqNvjBbpqqH4I7WQPKbhH4ZUCg2l5awkOCTimPdLRzdkaMHfyzHD39blkd/IIPx1+To8V0ZH5zoAqhikDcd2ID14+ju4sDAu7CwYxj1CY+S1XBvRf+OZWL1leGqbGztiGw9L0fDb5Ph1udlZfub7CaqFlQJlyx4E2SAJQjtGFuotUgO4D5OBxrPc+THsZAxb2zU7ACkg4Zy9tFWb8NFycVYTn1blcoZUSki02M52sr2UW/zFVGTiz6ILlttMQG03xYPdSnTB5ClrajT+CqDFyWbyFbVbbXym08UbFcAGcoPZDLZl6XRqzJ8/Nsid39B5NFvyeHBAzk6GivPreEBKLsXUGoD+/KSWhi4T6dfHLgp6EK5cpoC/aOZqYb+AdVFPXbk0HU5LHioaA0sdYz+wlcn19ZPdHeBG6afk+HVvyiDa9+ri8YzKquXM9C1hQM97X07wOLTgF6ncfA8AbXzmEEZIMq16UR5gHJtdCDzIiBX0z2rPaCmD1R3GG3GKHOWQLIuA2JORFtEjZ/91PRqqOmRhpx2zhJHF41wHyggaaGwqQGe6Rc9jU4JB7qp+KJM3v81Gd/7dRnvvShL4z2VQ5qUKxidQCaNBQP23CL84/4HHq02i3T0EUSJUFEe2sJqgYUBJCujqpNdy9Y+nfh29wJ1vRSRwboMh5d0BfmYrF39Phle+YIsbX1WloZXzKrpcYUruzjbtSmw3Fpf2fmZjomMKENE2TZ6RJTJyDqUBT37JUCjXpv/qFuzEWW70Lpg1AJgORs/iy7q2Q4QdQDay/SIyJ8nlxHjYB5txHLWB692/4PxZDrQ+ODksKzYbQYz6hrX6K59DDp58DsyfvhrcvLoVTk+fLvcn8ADUj7YzVYTG+goT3k2SRp3lDs/FrFU3HeieZ7EXogZbdAcOwKwzKEerH0YF1q0G54E6Co72JDB2lN6mfJpWb70bbK6+2fleOOb9SplR5YGQxXTBUlt4DswMAVvAM4Xz10cC/G8Z14XIBd1Aeh06dXkAdLbfOd6lge6/NZQ020WDCAGVwss8jPAIx151EM9/95GlI/IekygRx4RbUR+lq35yqAMdaPfNn3KRERajafUMsi1bcZXeavrEfyTh3Ky/6qM7/+ept+Uyd4fyGT/Jb1+1AmkIxwLxfSdsmRmV/knQ1t3ilkzZ1PKtvQmaceLAsPogs3v3oCwGlXDviDCARL6SGmWW9UMo31NH2vF48FYm9iTpsP152R551tl+fKfk+Hu52Rp7ROiBd3B2G87mB0Pz89ZPs81WkQ+vwR1avYicn2ef5Zrfknr8l2jAdlum+7MgkGAiXdOltuMdIEOqMOPVBdF1mkCLzEBNbuRn5H1gWiDPljuQpetdt2yYOh2+AT9Agq2xpMDGR/elcGh7iru/ZKM7v5rGT/6qnLx/Q7XwoTwr3r7T+KYGTuCj5JZaxJCcSk/nxqU5x9JYDlAvIyfbdHSybhQsRg4zc9TWQiVhNy7HmPWH4cHEZcxm7vPy+Dq98hg9wdE1r9Nllau6oKCh8Ec7vk04CPOhfMgjpW+4yuC+lG3zQ7pEVG+DbSTfTQ5FoxoBAyk2oIBGssADXUBMkhcMNr028qRdl7Qbh+/xDz/WYdy2c4pQE9f9o6o6WR8IEfvvyR7r/0zkQc/J8PjV9TGYwjaH+zpRtpegFnHV9Rt2dA+1kUE75piT2u6b4tBy9Ab4EthMGTpIwrEa/2mMVozJx4tLjtK2Ha/As1C+Vh70NqsdfS7/rFPXQ8HAFTFyUSGm5+Wtet/SZaf+ht65fJNumDjeyvgq17lHKMPOe55TnnOKc86ywRpGZChDu1E2TYbbXI1G204ixzLluvhdC8pSO4yTkNdqJmvBQLMs7Uo2uLrogOLxJHbAET9uk3KOu340StydPvXZO+Nfyn33/wDHaB7srG2J2sbB7K8dixD2Pe7gG4PPnWW4L3VttUKt4gjJweKvpA4T+le+BMBe47CGoKDt3HabwBoqJPm7dYe0heOVjEa+sv46Ct8uW35igy2XpDBlb8iK9d+UBeR55XnX3gj4nnjOe6LOBaAebrRfpfuonG0gT7abGU+/VqOHUZkEGcNjMYjokOg5g+o+azZi4g22vxGtMlnek0u0uoAvwzMAtNAHMhJV+Lx8UTGR49k9P7vy+Fb/0oO3vsdOXjwihwePLR3zuHyRFbXx7K+OZLVtYnu0PQtt3nrBIqtcJ3P+MqSodA6VEAOJMLC0XogfSSAuLwtDNrh9EJl8AWl6corekUVlyyA/bgQdl9GXNb+3JClredl48Z362XKn5cTvUwZrt0wveY8Fx++0DaWXQZbIF/RbFFGuVm8i34ee12AThx3WTfTKZ/LBOUz2nxk+TZes2C0KWTjNWdEjRdp0UeuA9kHUfMFdMnVeJkGtPk8H9Sm//kAxVH/Gl+TfRk/flse3/4DefzGL+li8fty9PhdOZ4cqRDu4rvOcPnYFov1jZHuNvQaXgemWwBQ0oS4y9aBTTA3WkYVZROZKhoaWpH7KIExZzRtsYqRpgjtaNra0DDpcTO4fPMWH8eqoZPhiazuPKsLx+dlcOn7ZPX6d4usfFyl/fINdnAnZGD3SWAUyQOwOLBgGFltKeHUPaUmEMg7NdIiauOViDzQ59WBbK+GebLZNlC96QnUjNUM9MU83chnzhi6kOM8q50asu0aZmVQxpYY17w+8TUaI4OLQYffnhg//Jocvvsb8ui1X5RH735JRmN8Y7QsBvZxqUsjDQY6qFdPZGNHdxqrYxkM/TkL20Xg40aD+5wHD7XECPP/nmN6kcJdGACqc+wZloEuCMMNXTg+JavP/DU53vyrsrT2vAyW162/cPcH9z5cIwJ0teYuFLh3pBlSGRMZGCO1sRjHbB/U7LTZBmbHqKPmsyaXUb3pGfOsXJPti7Yg+/gADeUoTx6QbQA1uRpom4i+WG9DlMHNRtSWBjqpj3XBMJbrYhHAOvD49m/Kw6/9rDx87Vfk6PBu2RyUe/9axtB2WW2njz4tD2Rl7Ui2do9kTS9T8DV0maiOfcJiGpoQg2Uakx2tDHh7WPY8wsVjv9rRyn0x9bGYXhtm7fkCVzuP3TGzsbjfg0XcLBnZnt/AZYr93of60uJgZU1Gm39dVp/+L2Rt91tkWeu2wyj9bDsKnBdkWGw0xxsDvC7BgwVZ9hl03QO1cQZaV31R1Hxk9JKpLRioUzmDsm38jC5bbcjxnBV9Y+2KEfQYTxtMRk3AjN1WAGAS+sfHMjl6ICd3flXee/FndNH4otYf2iC2gawjz5caB743gSGuJXvAyAxptrY+kvXNsV2eDIcYyowLutNdgzdlam8WnHwot8n8+wWb6Aq/AYzGG1UJthwYzzpYy4OVy7Lx7J+R5as/IrL+/XqJcsvOBJYMe5XzYZkmW7DN3rJZwvkE4vm8SLSNx64xfJGYWTAu2mFuGO1HOjsg+s788yDbrqEmwxgyHfUYXwSoELfBBGhhMsZj3a/J+Pavyf2Xf1H27r0o48OHZTjp+xKeF1B531GoDVPGgqGDU/3YWC8DHvcwVlYndiN0Y2skQ+w0ZgZm41gTy6eB8L1d7TIXj3n+Lj4ePatmEpatvVoutz3tPPlj9MbVCnJ86jSQ5e1dGWx8sxxvfb9MLv1l2d59QbSzPUKcJ9xIVQN23syOaQq+ruPnDwnSF4t5YzmPyy7Zs6JZMJ6E8T8pWKT9lMsnhzBuOUxGezJ68BU5fOdf283Nh+98VbetRzacwF86dr9453KSvYdpAYNzujD57bSipQvMKhaNrbGsr0/0WjvuNLDIQKZUqwAT8sxPo6VpZ4bH4/5qtiOfsHagUMjg1NqV7c3IlIXWHwP3CQ5LbouXcwVYCLSOHceSznz7PdKNT8nS5b8ga9d/WIbbn9S+3nKbumAc47s5asg8qFOzip8DI9F8XTzOO1fnjd95OLVg9AmGzqJsDGCRBkXfF4VafET2hzoSH12vocseYXZZxqCZHMr+3S/LwZu/II/e+Beyd+dlG0PNBhg29Q/vaFaEDgYqiLjxWQa7Dz7f7Npg1D/IrKwey+bOWFbXj/TyxH27TS3bL/IwmgyVaeUR9Yl9Vni3WYRVu1N+AASDnoedZBQ8N0C2U6Zx+Tqe933kWir66H8UretUC7aWhyuyunlTjrb/pqzd+hEZ7HxWBbZME7LQsfOlR6fpEeeooXQjj6tcr0Hnq/G7ZJ4keu8w4okBctDk0xYSaZSLNkBD4ymfHx2v2ekDylO/BtJpt002ynXZA8yW8k3mWHcRey/L3Rd/Qh6+9q9k9PAtG0djWy104ptflR0sy+RkpIN0qGuF6lk46kt3ESZiw84/KTk51v6xBQMJcSzpYjGSzUtjuxGKyxNj6cHDrMXqkwLoasuTQfRtR0012mJobS8NK1Simdy42PP+890FaODg0xDYWZIxvoWiHEjifIqsrK3J6s2/JcMbPyYnO5932Ynu7pSJTQU8mbSdN4w/WHb/eVxHkB7HGYB6PD+R7u09zcu2gFgGKBNBmxmkk8c31OqCEQWz0zZkuewQyDL0SzmUKUM98vsg6uScPmI9liMNYDnuPCIfiDaQgNHhnjy4/SU5eeN/lEdv/7YcPH5PJ/sYzwzJRAcUHtG2m3A6gJtrYdUrlixh+GpESkRZOWa6+C6LhaWlsazoZcnm1qGsb6gPfXv0kGBb2aZnhwTnAyXsIo9KYVT1apjtN8BapH/T/sGxLaZ5sdZQizG2yemUGuilHzZpvkRoHQyVMX6jpH/W3zrBTRJnAHaUvzyU4fJlWb7y52V4SxeOK99vCpDHTU7ID46X1YfuZWw3CLhdLhi5j4gm1iLDekSkI4+2WM/0RdBmn3TSrK4HYJZYysi7ABmgJkcabQJRLvpok1kUtAHADm1FOpB9od4m63SND2UdTBh2PqhKXykDMvjW6dHB+3J49/dk9ObPyoPXflsO9+/YYkGolL5gQ22aHwxM9+vwMlxaFNODwWLRqlMgq7Ho6F/XHcbmNi5PRu5jqqLwYd8AAStSMw1mvtBRnguV1R7wQgK8eq/NomZ3IZ+KmnxsD+kklSb7Wht0rRj0AMYdQ4Ee6HgSdOXqd8nas39LTja+W/t+09SRcFZtF4PLSSiVY0QcZ0BXvT4O2+k19JGlDHnIQYu6pFlZC4BVAJSj4SjMPPKBKENQJtKjXLTRJpPRxqv5AtroqGf/qLfZV6Jn+IzdBoXK4VXKtmM4fiiPb/87efzaP5PDt39J9h7s6SWXLxY2CFVkqGa4ha2MpyksNggwQUkT6UEXcSyr4TXdaWzsHNrDXYVhgG/TtwrtfQgoYYdub4DuNXKF91HDYP2arF37gqw89Z/K0ua36oYCP87j48K71sdGG/KYzGMxoosX0TpuO5DjiH6yrWjf9k9dzsirycBQNIY8yuVylGMeZQDS2nhE5NdkgTZ67JyIKMu2zQL27FjqWlaR48ljObr/hzJ665/LAb5Adve+yumVMG0UM/Zph6pa1egtyYCcaZpZwcjIsRwsyWSyJIcHA9l/tCKjke9g3LcWsf82WcQ8jfuDRYm5C8afJ3QWwGafNB/ovfH+Xdl/+5dl/N5PyfGj39frzPumbTc8NfFyhmOvNv5AOz22TqOPDFAbt0wRsR5jy3Qg01i3exhW+gAApwyU5RgYwaCBGr8vaKfLRpsM42uAWJuBpbn+2W7h+FAvQ/5QHrz4E/L4rV+Xo8fv2V35IT560wXCf0tTlwoVtsuRYsLmL33SD6qRrhamMeBdzEsgWREErTAyPDa+uX0om1sjWV6Gng7f8tHth4nczBr6yJwFZlaNox+bboCPROvn1y8h/acCjmX56R/TncbfluHud+pasaJrs/e5ww2fGkcBpLedny7dCG9H3UYf1PxEGu1bzh8BjjhvAH1w0T7a7F24HwwY9KOaPBo9kr27L8vquz8pd17+Vdl/+I4K+PcOMI0h6xqmZQsIbpPRznzAEU8k5Nt0ioxeP6+sjGVTL03whTU8DYp3PjTf+wFCffw+CeCNAgMR5RhDpCNOlHOMbbpngRrSv8bhAsAZBaC5hE+tcHly8y/L+lM/Lifb32k821niZR+Xu3wExyN588bmRY/fNsRYa/4YxyAyUY6pC31k2tDXRxtq+tlWlGHKqNEiGt0ySP0BIN0/2PXqoZw8+rocvfFP5e7Xf10OH91RAX8HQtf7R3OoURe/moUJjM4HZXqCvFzqU4GCwmtIpW5F0Eu95JPRUA73l+XocGjh4KYotspYsBCNyS6cgBod6Sxo1z99RnyxcJzmLg61ccpMjKc9oQ+R7DJUu/Pk6I79KtrROz8jS/tf0jjxjWLv57YFgXWOrS7QRpzMGX3szEOMFanmjz7QulMCMQDwmCIivcYHIj3ya7SLQraZOxP8KNPW1iiHoxX1AOljfReZPHpNRu/+mhy++Svy6P6b5avpkIa8yzkBqUxWLDhFZhGUMBwWhxengG1kHvNIFwssGqMjfLlKhQvvwwUGo2a4ztdQmIxjfWKHJosA/yz9NouLaD9sIHAEg7Jedu6/IaN7vyrH7/0jOXjwqhyPj9BSCBuaMaQ5y0CuR3BM1sZmLkeQXuNFdMmQHvmxbAtGBI3lRB4R6USu15D1ajayDEFalwwQ+VmmRovIfKsj12Sfhuj164HuJvbe/rfy+PVflIN7X1Mm7lq4FF7YY+B61jYilnCz03/RCYNpOhBomdAyWMae0q1KlQZRFoBd0I5lMhnoDmNVF41VGY+HTtfB3dXubnTpgdc3abDW9lONKSA96kRE+mLJm3667Kkf/Oz6JSXUbGHQXcXx/qty8M7/Vw7v/is5PsRlKT9Kd9scUzHVQDryvGhkHdphIliu8TIyP5ezLuozz2FkgB6RVzzU23SJmlwuA211oo2eMU8OfCTw23wQ5JNqNb2seOuPf1Yeff1/Ebn3O3oJoANGJ6ndlLStP+T1VZ68xAIDO/51aPw0C/ayvJMxDzBA77M3PWdAAncRWKD0tbKCx8ePZGsb318ZOe/0e8QHjNjnsSGk58Z9dIA+RXR+aYruJkWXkcGqXLr1zTJ85n8jsv292s3XoKKn5vQ4A2rjNI6/LnqbHFCzOw9Zp+aPub4RTitMAHMAfBojWI/0bAOg7awfZSIgl2Ujanr0GXk1GjHPB3mNviajHB/J8f3flNV7vyBLey/KaIxrVkxB/CaCtlPnIq5tXV+XBr2exWM8+H1KPEY8PPF/34eHvCACKcutnhL8FVCulIqM1wCXx8sXJ/xeBn5dajQ+loPHA9k/wA048PovFthMMZmjUI70Jt6OpAeT7YLLTnNiSiu2FkDWbU9FYR6wUKis3fRGFRVNOJ8Dmcjj2y/K+J1/Igd3fksePdqbyhTEMUl6M8YUURYgPSLT+PUKwtszO5+ZIiItxpIBGvjwA9hNzyhIZeZdiE4B6DARtSAiP/upyddoROShzHotFmC2DlmX962mypcaqFYDQXXws3qTh1+Te1/5Odm7/SX7ijp08KH0MWzqLoP7Bjsq3b5XoFTzYmXkxnB+kfN6Sg3cxmk5JzVAjEb0FgDQG42W5fDxil2aoO7tRw6Jqey0DKsqqRkTQYmGbjwW5iWiRtMaHpO3dme6HUPqj9O69eRy82HdTmG7ge1l6xet419ZHuliMbnzL2Rp/4vBLs4M9ewsWDGOxcZuQhsd4PieHdOOGo3oslkD5OmnectpcwzMc0A+8j6ySNlX1Jtng8hybfED9Euc0tWJNtXGSfVcOZomMtm/LXtv/Krcf+M35ODRe7pQ+CPi6nQ6GCA7azYh+Sx5GxARXzWAOuWgT6dxoCugd6xbHtwExacmk7FLu70ioweXndKnvJIaakmgldQHNb1aMqGCGXpApPdJfVDTqyUC/eR9xTOKsr8hjA7e1cNXZXnpFV2kj0ygGR+NMaWBroc8Zv18zNK6sIgscR4dWzA4mXKKqNEiyKNcTb7GyzJEliMQeOSRzwYxzzKUiwDFqDhQDy+tW60wT44eyNG9P5L3X/1FGT16UyfhofJ1ubBHxbVkhtCVvoCYsuU5ZXpNrq9uTAjYdzcmZwDdS3YT9GAo45HuMrADaWSsgQrQYMMHK0w+GcBwTBE12kcL7G7vp3LuS8yM/mS4KUtrO7K0uqbjZORdzG4GVMdJukPBSwcbx+yi4JjuGuMRUc7P82m/83h2DyOjjYaEa5l83RRBZ9Fhm2yms46cqQ1tuhHZRqx7fPoOrBNoclx+MUFJ2l12SWE/jYcfR1D50f0vyaM3f1EO7/2xXpqMlMSTjtOO5yu81iRkNRidzCAX9U/RCqwY6oTKWbvwgk4jgoLTJ7qYjY5WdNHApQkWNpc1cUso+zmdpV900kODWT+oZ9pHLenREqY6Ev5bHe5nePJL0rWdz8ryxg+JDL8gK2tbcmw3PLTPdVAt6byxH01CgjkF+zyWY5oHymQ90om8AHTJ5jpA2qmvt2fhNnoXog71csCoY+FBjkTZ/PsBUa4L0Q9lIy2WG9j1vtJti4AnMTH5QdN3D2wWtHR47yV59MrPyN6r/0QOHryD864aOOGeDLaAYES47gcPxoGY8QmJRqg7Dv/9DI0Jn5pohqdAN7aOZFOT3/9EvARahjpSsfcfcAo2jDiG0N82dtBrQ1na+pSsP/9fy/LlH5CTlae163Ez3GXsHzOVb2HgiBulQLFkiOMUiGMVdCT+3EKWi+O7y0YNUQZosw2c+rZqDVlpHqI8cwaFeq0M5DrRRo+IMshRJ2KdMk3djij7L0sDmHKYaCfH+7pY/LS8//I/lkfv/qHuLsrP66kNHyc4qJzZxG8hIHeLnTAR+FB90zVjikRz8zwUFDpR2kO6RuZlTbZgmE2XwQ/xrK2NZevSkays4n+VUlZRBj5lm/p/QINmSKHP0U9L+IKh9utwRwab3yCrT/2YDK/+eRmsPatC/tyNjko/BboDcYKOF/Q8FhGnnALHch7HbfRYzzwANCDTCfIJyCGBnu01b4dk1lLmE5EWU0Qbv1ZmHYi0LnotUa6Wz0BJPqkcuC61X2RSxsnJSEbv/7E8fuc35PD+yzLRSxGVVo6e+KYD3abVONEU9dPSTr84wIMPzGlM0xh1oyYjPDqulybHE3zgG14q4M2arc9LRBfP0MGv0S4C0e68xPiiXqYZQZP3qjPs3y7ufLusPPUfyfDaX9LF4jklpn+7CFkbf9i5YoxCv7y0ksdmdawqoizLNdnIi/xczvyIyIvlmf0zVxauKLEeUxeyTFtAEZSHLMsxjzYiPaY2P5QHaD/SULKkh2btwKPf4zuy9+YvysN3/0iOHt/3joIP28uHeEDSAyhGRb3kOSHzAwCHJW+QaFG2SQrQmQodW14MYusGozcFy9g9k2P80M9quQE6pTfAO1/P3cUp3S4k2ZruQvZ6oK89k6vFd4pWbnSX1/LadVna/rzI1R+V5Rt/Q07WnlahFTsjtmxrQUebSk77E127hJ1JqcexSMAPx2oNp8ZwKrPOckxEjccExPlEGjCzYBBRmIhKNURn50HNdx8s4psnREv6Qhfg3RbX/P7FsuPJIxnd/7I8ePXfyNH+e8pX29hKImEAlBBx4wv/c8SrsAEZk/Y8pzb6OVM5aJpmCIosf8YBQ1jbptn4aEkODvAxK76mjf5wJZ5DM9cDbttTDZGfZWr0SLuo1AdRNuaZZu8Ox7pg4B8gLa/K2s3vkbVn/zNZvvKjMljRxcPGB+GlARZgLdqNUaOAjn2qnovGMM5BGVQJZ5kPZ51DnBdZn3Xjtd30zEqkA5m3KOgv+o3IMdTk2nQz+sjBHd437JNRxfj+V+Thl/+fcudr/1wmo0cmgBc+NcHvQ0LaL2U02SDRWWg+5sfzJOC7CweiwghNlGlN40Uzl1eOZXv3wP45Er7RCjpeNrpN58Npy0cdw9VV2bj8lO4qfkSWLv1VkdXPaP/t6OnHGwZQjqUbB/iZNYwXzTBO0Pf2aDl+TMVFbHwicdxHRDry2ocCqCPNG+fzQP1on6D9MkUcFKw5Bo3pPIjBzLM1L555qDV8Fpjs5ajmMM0O9t6VvXf+QI7u/o5emTxWIj5yxYKgMvYH6UlJrmcJZUvISo66lTMd7/aa8I7VlCmHOsuRhhts2M34UmCTu9ARh0mWPkGZRwbocWtZ/zBgx5OBHJZnM0oDlE9bWqfrjuSyVtAEHevJQtX3UN3V4BxYKhzjFprX9Vj4/gIBtiJNqbCNzGsFhdbYIq/Unakl3M52Dk5jOZUlFYtuHBI4KLyfjaYJ5aXVWyI7PyBHu/9bkSs/Jkvr3yhLw53S73puQhxG0mS7UrMLe07ETgQCRi7wNpxGpGPMZznW582HPvOlC9SfWTD+/xF+Eq1glxcH739VHr71a3K097aeDEwg50EKA83kQNMDdW0QlhqGQZOKoPMDXZMa1xx05wF+LyS8oBfkMGksN3kM0FI0aIGDp0nQ9dcULoONEp7+PDoa6GUK+KDDxkzWmViY0tSfFswjJkXhWTTNxAmxgO8CLshkcH0TiPQZmhOtfVb3ltokcpYDsSCzF3LUnWZoglAqtpnFltkbDmRl+7qsXP68XoL8TVm59b+Wpcs/rIvHZ1R4q4RCy4D3upUaF1P7Xgq+AxB3XhAuCl12yaN/phpO/URfFuTK0kaPgMx5VzKiZivT5vljzG0yPryKHb3cwO81vv/Vn5L7X/mf5PjxWzK2BcM+ZLWJC40IN4uJEPtmtp/qYFx+D6GJE+s3bGrdKTgiKdHo0HGa63B3QDmAdULjV5JbxE5G/zApYFJtrW/5t1nxzVZbuAqPEXQBngBcnkEadfQpbwLbO7sJOQ1SOBcu7Rp4NsGeLYh9WHQYr5e1gBvO/HhSYRaMFnSNCFkUcbBjUzc2Eg7UY662/Of3dFc5WNXrtm0ZrOFHfz8ng63vkaXt75KljU82NnzqaNKKj5KpD8RZG78ZeTwDXWPa+q9iB6BeGx/o4mXU4tB5sICFCwJcdnUKwLC65ObJzOWXHOMLbyjjd39V9l76Sbn/2i/Lo8eHfv0JVZ1EZgqPX2sZD+mYkg5o96GDdkFYRIxLbXASOX1ZSfgYFzX409we/VYpBOoUzVQHsUHP4vHFge8B1m4UTRixY7CxjsOJ/co4/k8r/k2BfctV+WbKFOeA5tUP+5qADaOrjJWNqH2Mu674aLH4xx/41oOQ1xda6u0pDiCDtlhRK2qU9vxSw/sNye7FqH27FDA6+kYXfq3rXsFovPTynlUtBAnJwYkM9dQOllZkuPGULO18m4y3/4JMNr8g65s3ZXlFFxGThI6rwb7BK6yhuDDQh21j9Uki+43nMtNtwbACT0gQBtroQG4cZTK9L6KPNtsAeF2yBGR6xaJyx+N92Xvxv5f3X/4n8ujea3bi8XV0G2A2eEuygQGbrGviu5y50gNYLDeArGZKIpWqvvBAz9tlNMhSmHql3XwIyAZu0z7Yh0GjWhEkewcGAW0A0f5AQ0En0fBY1jaOZGf30P5dAaarW6Dd+bCYijh0rWjrk9Npzdum09RCgS+lKwNhIYcm5PHpge8cpg/DWVy6I0PbQYECLFj3WZucZt7RP4UPX7CNuxh+y840TB5rMP437fKyCiytysFoW47XPytrV79T1na/XZY3P6XkG3I83DC+rkPFF+LTvDTajl5UeDCwD3SNTaLXGC2IegDHRETNnvV9Tz9dsZ3r0fBsjDJ9A8uIPtpsA+D18QWZ+bGcyGh0II9e/03Zf/n/JY9v/54cHjxWwzqY8O6tOTy5FdoChfGANo0NmMrPItvxd0Ol2gKANhlVYy67BlSNAi5qSCZU2mYlTdB13rS51MLX2gG8F3sJmckh19fK2kQvSw51p+G7DGOUydAFitjULP61YjZRwzd6bYI2prxVVi2hIJDmXzIUQUqhP0CBaVsoykrqEx9EbRNWBKvpqwRkexQsVlrHbmNtRXcOq2pP1x97YE13cIONdV0ANlTyipwsPysnq58UWX9B80/IytYzMsQzFsNttYM3jdIOA/xpDObLz5OtSgqn+Z4HEdlxekJm0DXW+yCO/2gLIC3aZT3qtaFLplkwMrJwliG/pgvU+PN0gOi3pkuQl+lElw8CuhiIR/sPZO/l/4/I/V+Wk/235OjoWEZj/IMg3WUMfcDj+2kTpeHfEQ6wbW3GD/yrL4ZhbnlySNCBq3yPCQW1pfbGam9t3SfB1IC/E9pAVNjEQW76iOFYJrqtH2oQQ/weT9HFTn8ywcDWJWKoFhif1icTHfLOsnSsNpZXVGeMCYX/HaqXJrporG8facMg2BOwp+5hz35ESG3hFohNIPwhHtzE0Hjsdg1CtQAQj/sZaifbu3+xZZsKTcMVM6R/OgFVdjLGfyxUGuwUWXw0Ocb/OMWuxcSdYedqpDZx6aPXGLhnczBZkfWVTVlZ3RJZ3ZUTXRDWN3T3sHRdJktPaSfoIrH+tJzgMW90LM+fLTxYIDRZPOWMlLZYK8qCYWu/5l5ztI1bwsfJLK2GtnHehj42I2i/Fl9Ec0mSERvS1qg2OlDjdckTkAFquhGRH3X6+JiByo4PHsno7q/ImnxdL0P2ZXR0IgeHxzqJdBzpIIVNTMbDg7EO8IGsrmByMB4dQGXANCMFOdmVMm70jUcntjBtbi+7vs008HW08x3UEJVFYxvrjmgiKyvLOukRm9OxKMAe3lVX15Rnn/+jrjq6ME1GmDyQ14VK9VdXB5qrp+UTXTDUCybX2ijsGvpA+1rbMjmcyDJWUayweKbD7vXon/oVJN3yD3SBcuOadEYfj3FfAe/8q+7M+kAnu8qPtf9X11e8G9AG7fvxIf5jvU5kLJJ2P0fTZCgTbbMtGKCjzfqHto72dVHVc4UFY+/xstx9sCY7l67opddV++9lR3JLtjZvqT00nosAjpqX1tswwiqg9WbBaAA6jk6zIWgKRbfw52GR8ZrnQARtxLnQB5DrsgtEfueCAdR4EeBDNjtts9lmr8Zri6FGj/5r9KpfZdkgAMvESkEzK9lkdH0AJqZuwANIyPVF4Lpuv0MfYontOmDgndCZboLCTkP7ra0zPOSAy8yArC7MqGGf4ICf2X5th8U102ZMNXfu1LKQYuHQstOmcc+0wDoD/QCbZdGFgNbxrITJuAEFFjXXN3/Kh3XsOLHHw8s9Q053fFoxX3aAGS+4X/1DG8wM6LDYOGqQz211TC6ItvFdo7f5j/RaTOCDjpxn48yAkVogNcddWFQ+46z6OLX22xemjnZoQetemm0XBsPUD3jekQ6vnwe5H0+BgzG01VXc9/RcIJUJU2D0ou/0YgOLDMmkARCZl2bgX9zzIRX6JZgkus9Vmarcjaioi3OxAAnT1WtFSqFCVlA5XP+UxRO7HfwmhTXddiYwqNnxwM47vOHZC97/gBF4ggd8mmLO8ae5/f6FLSewY5rmxn/zAnToQJy2PjjMGztzx1ZPnHoO4yIwO6AvtvNgr2vAZT79t+qAbaxSKOFigE1P/FTXBo7ZbBR7I/eFhwR7Vi31KWqxOym2McdBH6DF8mmQS9Sk5vUfyKlZDbq9n0a7PDig1hzVrXPKuypksJCxr9F/yKnrdsHzdppSSchUnouLUUHne22QK3b+pGM6xk/jiS0YbQ5r4GBcROfDwqJt6wPYYx/8SUKM+U/CuZuHtvPwJM75ReKi46O9mt2Zf5V4UYDNJ2H3o4C2dqFzkRZFthfrsIdPE85i94MAz3Nbn2T0lXtS4DmK/dknpiyTz8d52/Vh90sG46nFZTc9MSjJzJ1xFmRHtBl91PyBlmWJLFdDlImI8jX7bbRaDDV6GyjX1z4AGv1EkF5Dtgtk29lfrQ4sSqvJAKQDNX0i2qmVI7Iu0WUfiHYjaj4iKJ/tz9MDarpA3/hAi76ivTY6EG2cBbBDH0T013xKQsJFATaB6DyXAdaBs9La6gBouR4BXpse0KYb9Ygsm2XI76ItIgPUaDXU7M+zk2WARf1FQCfTaSfapd/sK9fnIfvqQrYZddv8Zft94yLa2geAhjpzItajzCKI+kRfH9UFA/Uu1GTb9OmwVgayLNBFa5PJfAL0SMt1oKabaaxndPGzny5Ef9lW9hFluuSJyI+2oly0R2SZPqjZ6YOoR7/ZFusZfXxF3egDqJWzfESWibpnQdaP9egHqNWJvv5rOtluBnV4q7e3M6AmS1rkxcDOC9iq2evysUibutDHTt+2wtZFxUVcZD9fBC46novsr7bYunzUeKRdZFth66z2zttH0O/ju1kwgOyUDcgJqHVY1I90INfPixgL0GYfMeV21VCLt81mG6jTpstYYjorso82n0AbfRHU4q3Rsi/K9NElzhvvPLuZv4i/GHfWQ70tRdRoF4Xosy3VkOmtctp4oFRdMNbPC9pjALQd6ZEGZP9Rvy9ol7o125FGeSLXI6gHtMkANZ/0RWRb0W9fP2dFLT4g0ttkCMrEWIEsH21lgB7la7JRJvKynxqyfSD7YJn06CvKooyUfyqvDVGPiPYXAXSgG/XPaiuCMQL0wTIQ66c+JSGy8FkBfXNUCYJ05KTXTgTlzgLqnlX/P8DBc3JR/XjR9og8dgD4qNEzIJc/Mczx0Va2metEtFVD9JFlSCfIj/Q2v4sixkGQRrrV9WALRkRWBCAc0SVT4xE1mWi778qd7UQd0vDtA22g1vlYsXauHsfjcZGv+2mL7bzg08f2mHJAH39RhugjW5NpnoIGlM0qZO1LdfjTZL8+BWZUwKPWJ/4QuGN27JwLanImWlSUpkO28Wbt0eBwTv37fy5URLWK+CCCmiYtnzDGxogWUEZ7C1Hfskwn9xdp7FPkXFQoG3mkZV4E5aIM0rx5mG2inmX6IOrRJlGjg0adU5ckERQEkNNYG/rIzEP0uSioxxhK5DYo8DoajeXOvfflj7/4RTk4PDB+a7SwofYYyfla5TBbMKQFbWVjG6jbvwivszCv0Wypon/sP9Jjwd6+LCdXnhLZvSnHy0NdIxAplfzLWVgyDP4MfbJZCKQ15zPROFaM7TI8zowjnAeNwWj6h/8NsqJxri+LbKr/rZWh7Kwsya7Wd/A1EpWdPsqN8YSINfJi0r+rYgWzbSg8juE8lgCWazvyWIduTR9gnXwC9ExbBG12zwPYinZRbhYMMmoAH+iSAbJcrNNHH1t9/WU0ejj7+mc10MyvyN179+S3f+d35Sd/4n+UBw8fGA08wvRUC+SzxJAl3UINgaN+3GPx3xjxaKbv7hiEXpqG1BQMU1Ha8+PMjqISFdjw5udId2C3PiVH3/gFTd8px2sbumCUH0M2SZWxWLQMYU2uBx7Y3hqrgcagiUKry2huReeaSS1iguI3MbCYYQc6VMaqzvnNFZErwyW5vjaUZ9YH8vGtgXxie0V2bfE4EfzUCGQNumi4F7S00OA6UAG2JZ7/mfYpcj2DukCXHBD9ALnehr5yZ0VuA+rIm++S9Am4ZqQxlORrssy7aHH1Zh75EaQDp3iWpl+IHo1G8tWXXpL/5af+Z/mpf/gTsreHBcPjB9psZ3oXapLTCGcBOuVNJrQF6Os32pkPSLq0zfcUnL8Tn8jk+vOy/20/JA++78dltHlJBvhFG/DtnRnnTLfO5rjY0vJMuJ1BKUMVGhFTLIEgKC3GBQ4xNlWVpTQs4Numts9Rwvbykjy3sybfevOyfMf1NfnBqwP55MaSbOJnOuyXbRC3ZSZvbnWnwosAv3Stj8kMyhCUBdrkM7JczW+X3SgH1Hz0Rc1GLRbk1t8RINJARuTRmP14SUW+zcZZEP1GkF7labLFAmFqOhpP5O7778srr75qP0CDoXaC30wY4MdwhlaOCbRMt5+Nwu9KttDsy89Gx69ITWUo5zl1Is/92U950V7Qj7qkkW4/53eK7rwsb7/ZUBJeqM/QoIc+239fBvfflsHoUN+hS0w6izF5/VIE9mFBM6N53qRUx3lAwlfITVt1Y+50+AdR6x6OJwioe0taPi5fUYd32Dailvcnx/LygwP5p19/T/6b33lD/g+/+bb8N196IP/mzkgOD8dFTr3AoI7ZiSrj3gZjbUOcRCjHOtE1DoHIp0y206abUfMfkX31SUQstwG92HRE35R1iFwnSMs8BJj12/K2RJzilZdyMNZlrNvqew8eyCuvfF1GYx1A7DAMGesoT00nYmBpYt1pnqxcZGdoyM0e2HZoXvgrDIsH/Dhhm4mLO3klNTybE6dlYafRCwk081H8xThdp2F5Kjc6mZZ0oVh69L4s7T+QgfYbyEbXvoSZUjVDPtW7Ey5fMMXNv+ZeVnpTLrnZ9XM2TSXDRljPKyc3pG3wGnNJJurjcHIijw5Hcnt/Ir9791B+8pUH8t/+0R35v3/xPfm99/blob1RuI+hjRFXhy0/p444rjIyb2bMVVLEPH4EeIiJcbXptdXPmoi2svV57Ky+iI2J6GOrS4Z2Y5BdqMoV82CRe3h4KPfu3pV33n5LL3vwjuPvVJRFSLNhQTPbntKmsok2Y8NBK5nfIt6g4dFAQdap2WE90xtEm+xDE9b+13frpYN9GTy8IyfjI6VRWAeVlafyTul+YZbbS/1UX4Veg9GN7zWPEXU9f+UkNL+M5lXL9nRH+fLDQ/mVd/bl779+JH/vtX3517eP5F1dTBy6mNnKqbbKKtQ15sjj2LWYO+QzoizHOBDpfexR78NCs2B0BVLjt9Ha0MWLoFybPOjz/OClJT8W2Ud7j+Tu7Tvy6MFDPTM6IXBycH5akrFDcloZJKgDNRpg5SnB3jVRLcnGp+pYfIE2resh1CkTE+mRl2necgXpWmxshpywCYRdg87F4eGBDO+/KyejAwtHO9J3J+bMTFrZ/pVAyWGQLzdeEuohoT+YIr1oOrRgflG0YEu5OUJ2Gr2f5iV7GwCbY2DveEn+4GAoP/H6ofzDVx77oqFrIC7RfMFwG3Gydo2vGmzMFR2Wu2zM40fEuIiou4it84A+Bs2AV0THMdAok3PokI9kd7QDjyA/llmPyPRYbuuYLI//a4EX5Se6nb1//4Hcee+ObiywTcY9AvvVWE1YMz1xGKM8u61WGv7Untl0s3UaQLoXNcWyw3Q0bMTJ4ynYgPbYZuOpx2x11WHdbmEGG26vHWBTZHB0KCv3bstgNPI5bzbdNn4Cj/2C+4lmXXPIFU/NWsEU5ayxJc3oa95AK+xWs4ENRZFhn9u5VuIxysbRmHCpA8VjPbc417pgnOilyN0H+/Kzr+3J331lX37+nZHd0zIfCAJ/GDOa7LwUH0QcXwBlgSgHkEd+LBOZVpMBMp2++ug+KZz6AR3UkWo3MyM984isR1kk8AjKRD5SrYPIiyAtJ+Npagam4kgvR+68d1veu/2uXjqfyFgmOsj0etZG4TT5sNMToFPNfs/Rtr1lpPYAXVI61mNCgGgmPGnU9gKs7Vo0CkjNTGlPNuDNUqHZzHM9a4/FjvYg4QW7IQ7NYgLNdCd6SfLgjiyN9pWBvigSujvTdwUrg4JnGxZN9JX1UfdDgZZLl5T+sIO+IWAnoeNssCTL+mYwtPssHpN92mFKGjP+ZYK2ZWD9IXKgl1q/9d6+/L0X78lPfvldeYxfNFc6zMbxQ8RxFXkYx23zI9JYr6UI1rMMUp5vkUcakOkXnYjpDC7gisVUUyLaZEiPyHUiy2Y7LGdkPcL0MQosuczBARaMO7Zo2OVI4UbLja1IrABSOQGmzgoRHcXUZHosNDSzaWtLmwH4mWl20cfOwHdWDuQ2CZlycEoLWYAvQXKESxLsMA6LD9s3aAJXk/oqko5kvooi4xZCRG1mzK/SmLTqWiVpDGWZ0CMAGv70RXksFqVfIPvgcCS/e+9Q/oe3l+Tn3z+ROyPoasK4Qb+bkqlMl1hUNOc54ljhGIwJsDEI4QooEwFalM/2aiCfvrI867VE1HhMGaQ1C0YUzOWMyAdqZcowkcacZaJGA0jPiajzPGECAQe6w7h7944lwJeUfEKndS/pMYv0AFROqU1DmiaYr9j3kO1gWWlCg5ZxWHzOtmqmXBRr6qA1yQTU6ehIBnv37BMTAx1bpoccSKqeBnRKyYr6oo7lXiGPdQBdMF0UFFZ0KhS4OFShDB0VjUWMj/ujY/l39yfyU68fyO/d3Zf7uog4IAzp8kIZJ8DIKHtukoXHOhHrUYaJdOa5zDoR6TER8+oAaaTXZDKiDmWRz9zDaANlomzWiTyCtMiLea2cQV5XikA9vtNiouChrXvv35d79+4171YE5Ey20K0OPssp1dDQ23Rgrwe8KXqwnFmpGNxQM9EgqqnsuPOno6cTDn0xGdvHqjLWSxK7BIGN4giTVDOkfji9PGeCV814qWTrxXeRbEUx4UDB3xPZdsv0MmZf30R++bU9+YU3HsrLD498HNkJwD0437fQmEWig8LyHshjsoYog3IfnQzqxZRRoxFZN8rWaIBeIp2+J4FypEceEXlZBmXoM7FOHlP2wRSR7eTUZQM8AAvA48eP5eGDB81icqFJbfr2tcLThOE3c63u4c0FmsG2nIIapkfPLxLahzpphqN9Ge4/1EXjSAMvG3T0n044H0zqvUfSY9FF3QgNGjv6sqPVKZtTO78GW0iLLG58uyxybYueiPcePpafe3ck//b9YzkYo591vNh48pvhWvLxZHdmp2MrJ/OV6vADRHpXahvHXWlRnSx/Jp/WKgUbGBFpUYkAP38qQn62l+uQA430WM4gj/ZjIqhb4z3a35f9/ccyGeHmXaFDHjZ7JRtK/n5T4yvd+EVuXsLcYJumCYwpZmhFHgTPkrBiaocymTZLn8ZwmuYEXeZwM1EXjKWjA3jQPh3IEP/0BzdFm35Gn3cnwsuBYHAbGVGfiVCNVl4DbQIXcfu/r3YT2OPG/3o9HoB7LK/vnci/uTuW33gwam68+nMZnsy0rvAkeZ+hMgvSkaZ944FFXk2GchE1HSTON6aMSMv8qMeUUaNHeRu/GWgAlaIwU0RucOTX5NtAn0hd9gjK1lLGnu4sHj96XHhu2+K28vyEI+D5LC8mHPvA5U7rNnT7C/asUOiF19BKspf1m+sZuykVumZR3/qgQiOwExrsP5LBCA8uaN/qcIGcyaMvK319XgT3VRh/jgxgZ1qF3d5ETuyxe1Q8brxXoi2PR2P5/XtH8hvvjeRwgr2gUlXEP7B2cTqcF1tGbSwSkZfHbZdePD8fBpoFIweySGCxgV1682z29Vnr0Kjb8DWfjEZ2KXKguwycd17nG1DokWYuIRIPCa6RIAfPc1PQYYq2DKQVNHQFbEQYq/CzrZgaxDIRaNaXeLBJ589gf08G40Mt4x0Zl1T8AJOtOQOodkb1PojtNTcWrg735iShFXq1pfkb+xP5vbsH8se3H9o/rkZn2LMcBfavNEs1jrOu8do16QnIRLlc/yjCbnrOm6jgtyXiohoLm7RTsxdpOYYMSB4eHukOY08ODw7snKv16fYSQgWxDOS6EU4RC7p48xB1e9jx5uuBuaY5KmeA9ite6mzpYM8+MTHH2oHwhc29LaKoK2FeIlhGZjyvzsjMbQz0WtJpXfQNiGgLah40XjZeS3sejY7lxfcP5ZdefygHY10Yja4LYxlbdofKnFh1BrXxVxu3Z0XX+G6Dte2cMbT59Uvq5IB10mIdCddR8d5F5sdEfszbgCCjDIOmLSagxgMy/WisO4yHD2VfFwz7mBU3v+ylskxa8S221y3XOt9YmryWIq9NTul236wk1A2aM5ZS9RoJFaB51saSeyrMC0MJQN99BwePZWkyUnd+QQLgdiC+aUrfp9Msj2C9lhpYORIiIOzytZTVNAI/J8bDN37xwJ72cLmxiUfD0dLD8VjeeDyWX3+wLHu4LNF22/2Oci6w0yrDYwYYX/meQkyUyYn9cxZEO0SkzUtZvlYHYpkArXoPg8qxUaQhtWE6UOodEvXb7ESZmg0iy1G2OYFaRsJHqo8fPZKjoyN7MtBk8YqmtRxpyFHHnxOQUDcppxFapa/MahBkZuQ07/R7CoGhhtgHpRsqiIZajbYA/aiTBt9cnYybwJuFo/jM54jtcbLznDYrl8HzYtJBd4o2ejsQIi4t/CvxvggMsAjqmwb84cYn2gLaoXbiq4NN+dqjY3mELzNjauiCYm8ydh2LfvY3yrhInAV9bLC/KEe09aP1X0pE3zizXg3NDoNgI2qKmUa96Ij6QJQnjcg6baBcThE1vkmoXSwY+/v7Mj7y70RodKYDwG0T76xJqze8ote8gh519Vjqrn4KsK9x1fzMINdn0GZcUWKahded3qGbYNI6WbDLsic9sWAUfe9DDGLsBpGM3MD7p/SLlu1M6F+WywCfIi6bFTr6lgC/IsNvpWK4+1f/PT5vi0OvROT9/SP5o7t7/iAX+ErHA66WB7sYX8y7Es9Hpke00ZgzTft0VifKZJDe9+NTItbplzRbMKJwRFSMeabVQLko0yVP1GT66GVQZzKZ2Ffbx+VLVOhy63bv+4I2+06fEa1hxmCX9FxL86EmbNxYaDnujnYs5Nrt4FmMJXsGY+IDpzhn2Qfw1DCqHGDGAq0iVwdlumSd536cEmG+Stnh8iwRsxToLNlzGo8ODuXL9w/l4WjsXO0GHcHeGxhPZUx1jUfwyI95pse6908dlOlCXxmk6GsRPZabS5KonA1FhZhqqPG65IGafESfDvVBOiuHOrZ0I70cwcIBaCTgeFmLHptVT6GN7/UWpScMj7wSv5WN7IBI6Y6GXuq9oDrWpxN9t9UFw5SLH8CL6HPIeXJMhWbp/WDyNZ1Em2lrg6nfRYG2Hown8sreWPZGtoeylzlGZv3sCYhlItajXA1Zn2OXNOv7koAoS12kKNOFLBft1VDzC1qzYABgcvtCREdtDlFmmoea7Wg/+sj1jC5/1LMFQ3cXE3ydOWJ+qJ2A66bNodwVU1+olVY75q6HD7Ree88rCpTbe3IWNA8N3PDEb3oaiV9Aw0euJQ7Pu9MiMPmaTqC12Tyzz9I7R1p6/f5IHtlHq4AuHPhWs9L9Jnh3D3K8to3bGo1jhglo0ye/hj622/Tb6BG0f+rr7RExCMqxMUw1Wk4MtuYr0lDGgkVAl8g2Mw2o+cCCcagLxuh4dpt50fA4SqUHEENbHGqpadNZgW6I9tu9VaCucfmGDegA3ynBDsPiCRbsvsC/H0DL0LzJ+FjubVySx0sreomC/tL2n+ApUV1StLlIcYzFc5THXiwTkZbPb5ZnvWbTx5on0Gq6SFGOiajRYz36ipjZYQBUqCEH11bOiDazDYB1yrFekyXa6EDUw6XIeDzSXfWxMow0zReBht/WL4B6bDdbdE2fJmrCc3z0hbmBv6aO8rTeH6qBG5666Jaag4vFPIPgL5KIWCYyLepdSPL+OdKmPh4dy5E99anQcQQ65ZrzqKiNwTj2Mj/qIdEW6UAux3pfZL0YE0GZmCiTZWPdHtwiWM4KFwUGNg8MHmmRmLJt1H3BmNhO41ww9x0xgHUh3XYGI9rs2aazwvxsgVl/2g1P9J2eEz3iB3nsVGiau8k4m9u63llt9QFsa7JPQvTy60jHyvhYK2i/JusHpjMij80M8M8iE2k1PhHpWYZzjeWMaP/UPYwaIBhTDZE+b3JnGzW7NVrNLmiRnnUmWj8ud/nPiznNaofqNXEWGwjnVEQmV8oLwO1EazTiubk1/1btB+iYzZI0YFM3W/QFyhyj7nwq2pUWQU3/HEl7x4vaNoyZSdOd3nYij0uOPdIjr0YjslxGHNNEmy2A9Da9CMr4mJhNBHWiLvh2DyMKsp5pzGspItdjQ2qykZ5loIsU5SI/lolMQxURqCWv27D4oNDly6O6CKCNbDfax7rlZ2lvUaFFi1SNoQ/tQSY7p+bJfHTBY/iIQ7dKthwOkE9/J9VodoMXPH1vLQ/+mUoZ14D3tdOZR5Af5SJIyzKxHlPmxXos9001kJ5lT93DIPJEJa2GLAewnj91iaA9ygFdCwRQowGZTjuryyuyosnsqzv8/1DkNUCHaR4g0si2ijuDspSLup6cPg+zOjEFmykYoxSZvjBZTXbj0z4ZQd9p39qXt8B3e0xALEcYvZT7orETFCONvualxaC7Cly26uXrso6b4RDjCXa4dOBJ0fbxB2R6l2xEHxkAcrX5RD9MfdBHrmbPZ2kPLBJMFxaxcx5/1B0Oh7K8vGwd3UwmZTUDS6tMqmTvpJYHuvES3DqOkLfKKdBHI1vkmnpJOFIWwCCFU1RjYnw5wQBs8HgaxUfPhKM9DYl33MGyquOr4aD68xgu5y8PXNmIoerepZtiDafoahm0Yo/9Yih+qokipd4A+tlHpMEBHhfHg2q6UOCfO6/ZbsPfdLBc+FRxo4uM4TbQhtkvDWQeEWk1PtBGfxJoFgw4peOc90HUXwRRJ/uNOVMfQIyiWChWVpZt4cA55oluO901elXWbHmaiywXdI0eeYZThAYUj8mghbZY6j46YLI+UY6b35Ewkv55GcfGrpMaXiva2IkOO5GEMnw5NQlHQKaD3Qro6AIx0MVxZ2kiW0vHslJmBhaNLp8Yk/y+x6LjtAbqRhtd9mry5wHsMNVw6jc9syD5i6Yu3YwavSYHULYrZaysrNguw098Ofma+SCcn9pRkYD7EoLZBzvQ2tDIljLMlmya1IalSr0PGr1qmk5HfPeCrxNdaPHtTjBcQrfEemSQTouI9czrCTc9hZX1YPmcjqwh2wMCDRbRxuHKqjwtR7IlY/vPNe7OP13TkaWv0wsDxxtzIsu0JSDvVkgHWEbO3UhMEZl3lkQ7zHOydTQSiFjOqMlyewXkDsjI+hFZN9olWO+2UwqK5eUV22E42tu1OGBr1p5T9BjINdpZABuNCTMX6ufG1JKX9Ii+X1nTbTr+cZF2KBgluW99hf5vzoeRcN6MvBBMnSZZtvrUNmVycrmCUG74AZmGMbWm24qPrxzLFvfdyrevtlsZCkbV4rTdHJ95jF4U+tq9SP9dtqxrsgA7IyN3FFHTb7NB9JEBshzK3AK2AzoeFxaK9fU1WzRmcXEdHIGusMkVzNdo83FaGDaari42U9f3gumVVw2ggof7I8e6M8PP25X3W2WA7rsMo0QTWrZ4jObnYFFAv2nTjL0Co+nlgybKMmU5ouEHRBomAUbH9sqSvHBlTbbWtM3KtISbjPbNEuyyuJJMgViYzgKO76zPes1ups2fDw76ymjzDeQ4mkfDkbcJniURNV5MWYZ1IpaBKMtE+iy8Y9bW1mRzc1NW9bIEfQWqd9rpjusLs5PUneYnxF4sW1IBDW+WlpPbmaIQil2D2fDE+lmg3uzjUbza4BydMMM1HSXlpicd67zB1JnvPtvn+aJmrvdHe+QOtWyvXlBj+GRke3ko3/zUJdndWDHd6ANhWqRaiCki8/rwmTK/6WtFlCEiLfJI70pZrqvOMvOZJz0plAWJzO/CInI1ZP0ue6TX5JdXlmVjY1NWVvEe0jVFniTotR7/fJxVbw5aOsOXEmVq/52srIte3FvZedPjvC9jnYbKmwr1cr0vID9fp7dV3TmsLJ3IreFIPn1pQ3ZWl625uD9UVomZ5YNjaxEsKt8Xi8RyETHYHisuGixH46DlRNR4SF08pIw2OkFeVwdBZoav2VC31Jtbm7bTuCjAfA7B605kDB7HVHCqM+VPU2FlKD3yUG6VXQBmo9UO+lrPhw6P49V1vSxZVVlux5VnbPBPo+MUFlUXoJzVkw54Uzse5CyNYCNON8T9uEJNN9LwSdrl1YF8y/qRPKX5KjrHmHj2Ajntq1WlI9UuA8iLiee3jZ8T5YCsl8sE5QDyY4pYNBaCtJmLMgqR2ZVqHyVlOm0xj4mI9chvS5SLyDJMeqrsE5KdnR1ZX99Ab5l87OCLBMxm25mGchL5wOExtAeBfrO7FCpzov12MsQnTNNPR/C7pPbtEhOZtdNhFoYbzMglHfDIR8Y+m9FRzmlaHTW5SFvX3ecLl9bkB6/rm4tffWnjkDCWta5JR5TdyTBWGGNt8yCnLjkg8/vYBWr0nPrGmFPWA2YWjDbghNWeMAP8ZE4T5PrK1mQislxsBJD5QGwc6Gsrq7J76ZJsrOvWWukuWez1TI5arDXaRx+xj6owvubYVaxpv+EjaetjpftSYU23/sGXtAgtml4gxXLjMsk1dCCV4ZF85FNZjAVPnW1RzOo5Iu3S8pJ89sq6fOHjV3W8YHFUoLn4oWCdIibHj5p7jLmcMmr8OGciHWAdPiIvtjvKZ0RejJN51s116iBvvksyLwE1ei3BcFtgTDW0yWQ6ExF9NQlnXMnDwVA2L+kOY2tD6fhNR9Pw5xdcbS4gZgO3KXfRnmw6D2p2Iq1J1nU6GXXCHK/vyvHKun1igHsW+HDa+1D7rzkUaNlOS6IRxrPCrFxDV8A/GHZ+G3qhghRkc70Ndq714M+XOME/ZF+S9eFQvnl3Rb7r2ppc0Z0G7Nl/PoM8baOMV2n4zDibkyjPBSGnNtRkmdr4NR9ttDYbOWW5ZodRm+QEeeS3Icp0yZMX+fQZeTU+UZMB2DAbGUUFH6uu6w5jaFtrh2kFsXnpo4DzxtFX3+T0gF9ZP9nYFcGNTy2j1/zoMiZ3wWhOM09QAz2vLV7T0GjQSJcJ4hW1ohPflgCtP7UxlO+6uiJ/9spQVvCGAr++YpbxBRXNoaqojTmgGXcFlIuyNZl5yDaINjp9ZF9EpmUbbTqkW09G5yzHVKO30YjoJKJNnsj8XCfa6ETD19f68opsbmzK2sY6zr0jhwZ6NhXqphcS6jDRpBot00/J6Kup46W51afl6NNSxina1Po0BRQ71m2a6tIewZJOtOONLTnBw1vgqFJzBWKTyqUvDozAz5sF2KAEO0ObD+4KHN4ui1v/NtZX5E9fXZUvXFuWT22WRYUdowJoK+LgR9D0HMccyzFvo7UlykRg7kRaLke9s6SIWM98xsHU7DDi5M6TnfWYSAeikyzThiwT9Wt5BvVjyoBN0NdXVuXy7q7sXr5sA8Z8TfvEytqCGVJDK0TPcPRUyA1O6RdE6VMSatxeRvbcZIrT6dGT12fh+tPkuiEFnvEDD8cqIKv9drKyIuP1TTkeLIOk6dhu/HnZrRTxGeR6F6ZxWU3LuEdVqgUuU8uLQAvARsRL+AHosnBY/Hpc1h3Tx69ekh9+blO+7TK+nIhdh0tABosEJgceEIMf+2JakQDyuKuNv0yr6WQawT7JdCDK1/gXAdqNcSDNPIcB+MmYJtL6oKYbQRqdt8kxWKBNJoMyzKOPZR34u7pgXNYFw389CgKeGbSs0ipf6kCiIbc6X1FWMaXNMkxPD863SuEoUDV6qZY6/mK9eRV6RODaC38ziDbUQBOL1YtMAHc4srwmk61dWVpd9U9Uix1cmUCve4OBc9YUF0Qtrlka4kA9y8HnrF89qNDxcChD+9fs+IdMIxkuD+WGjof/7Jll+e7rG3J9fbXo4tu4uE7Hb3ni8gT3cY61zfimc1wuHG3jEvTIa5OLaNPBTf4uUK7mgzZriXzAxqWixiNYb3YYRDOoghEiGgRQjrIRUTbmLEdkfk5dqMqgXmiIDc9gXL12Ta5dv6YUH/3Gjmqnm3CahjpTRkNLsRRolE1pBjUfEfSX6UTkz5MhOmQ9Ou0fLBjbVzXHMxiYooy7jA/tRprIp9/HBCslb0EeP9kW4LTiF+UWm+B5wgF/A7skGWrox3bah7Kil1cv7KzK3745kb/+1LI8u6GLidnTiamrob8gq0rFGf4zmlONY+CYi/mpcRhAfkwR7INIZxl57ieC9BqvCzU/XaCMLRjzgiFqMjTUJbuI3qKo28ZR6fqH4tr6mly7cV2u3bxpW22omNpp1YuHBtDjfJwJsGu2k33Sq37b6ASY6De9jJtcuqILBm544v+S6pKhCVMHNuxn97PjJwoEjnzeSfP4XK7EV9q0OhjIN+xuyI88ty0//rF1+fTWUNZ1BvgHxZDXsWHidlEydYW2a4YxW5tcmdY2pqlP+ZqtGs4zP/qCsWRfud58lwRgOTYqY17w4FMmy0Zel/1aAqJO5tWgXD3RJ/Y9Euwwrt+4YdekM4hhoFwP68xwcx1Go89YrkF51gWNnBesOIMZoQqUXmMZze2drK7J+NJ1OdYFA/+BFH7BsdzuBvo0Mw3PHGDFOtCXVpDpqFsyfy1KDSzKkpej7ha2Vofy2cur8sPPbMjf+vi2fP7mtqwMwzbJrrE0V1n7h81OdRreV03OqXHMcQzOmzO1cUoa9LIM61GGeZeviGijLdEW6xmRD9gOI4KKbYmo8ZBqIL1LNvNyAuJnyhFZzlpVilgysH2+fOmS3Lh+3X4Xw57H0P62zpgODSvPPw2LASHleBsghuATudVagnDJolHsenI+MaVX/DKezHKTVsBropcko0s3ZaJbeOssXEsXGTeLweYsgOVSndYTzQuztJwy2IzIa9OZqZ8M7P7DxspAvvHKuvynn9mV//yTW/Kduxz2MIybm9hfoNW6s1B5/Gf3AZLq48oEwWpJ6dPxd5aUn4mwCEIZiPzMA1CnnYgov2iqPavRlpof0EECkONGS34sNNYpx5z8qBdBmZjgnLyILMdEeQD16Csmwks6yPEkoJZWdKG4vLUjV69f00tZ7SBcr6ITbNA4rDZ7Hp4s1Ff0idziaYnBZMvrwmEmvdfMg+4wTnSHMVhdtXsAeNAJu7MBfiACK/ASnv7kr5j1T4YKPacM0PBJhpaa+kzCSwusA8sa6zNby/KjL1yR/+M37cqPP7PuH59qe/DbrhgZRRQGZAh9209Z1aE0/Jf3E2t3GVVprJ8ae1qeNz4J0iIPZejWkO3UfMxLRCwDkc8y6/TDpdZAJuCd33RbU440INKZaphHh+9YZiyZFunkscy6jXvI2W18TZqv4BHxK5flY88/7w9wsalFxUD14KcTcFFkPRV6ByDTyKHshykshhI3YTp6ILmRaceMn6nSKUQ5y7Wv8PsXx6tbcrxzw34P41j71fybgNuZ1lHxhPnEd+QGrHPL3wbymSICPbYET2TaeVc6+hEx2dOo61vyyZvX5Ec/c1P+9996Vf53n96U7762IjfWBrqIQFYHv1op898MYujwP9KT5o5gs1SK/KnxVuBjgEZnEXWyHpDpKGd71r6kS72casi8WM9+MihnC0Y0AkRDNV5GlG/DPH5EtFcLvhdUz1RhR//w9far167KJz7+MV0w8C6D3Ud3WsK1elOP5ZJw91ydTNOUh/qMrKYTPA9gvEIr+qdjgZzLRrlZm4FfSfbcQGM32QuJcmgrfeBBrYnuxo43tnXxwE6idKnmGoHHayWrWRc3QHfj/JkSzqMdKVqomoq6S05fEY0cYKyiVAKxhQJ9srou25tb8vzulnz+1o78jaeW5b/+xLr8Vy9syt94dkO+/bKe+1UuFrDhfs0UUqFkUNYQigR8t43POIaZZ8zT74M2uUzva28elnSrYRFHg2hEm4PYSMpk3RogQ12UWY/ItJoM0cUDnIMtlMqp7GRyLG+8+Yb84i/+gvzDv/8PZO/BQ50ws7HQGlpD2+DpwcpKdHqpT1udABV92f/wQLUIoqvtpqv+mRkQjQk5z2EfuqSAPxOLyVAaB1Sg4XDJgKLb+EFVi2aLPAWKvCE8uXxdDr7xu+TR9/y4HONZDF3o7JODMsv1OhbHYlMvU0AFzezieljruqZAx2MubdCElrkXh0VglzjeZqNAAOfG6g7j6bW22dCESyTctFzRy5T1tXV5enNZPrWj6dKKfMvKvnzL1XW5sua/sobzj6vT+A+YzAUWTS0gRqTYzyzX4G0q+gWkEbmeYf2FtgS56JflSKthnp+MaKuvj4hmwWgDDeXA6KgvGBT1+gZZk6PfSI9yvqtUP8hsTAyM9ujgSF7++qvyc//s5+T+wwc2qAe6/cZNnxM9+aaP2KCmZfs0QCt4RJr27f+aKEwKfyEW0gCUm/iMjAVEr49t0MO+2/GHgqa6GIT4whxys11osAVZ0miviRF02qXbIgtYGyGvCZPanmzURdRDnJ4Xk7t0XSbPfVaOX/jTqq/1ycj03C8U8B/NNRa9tFvSWJfUjk0e1R3g/pDaORnj/3yMre/Kgw5Km8hAFx/EDgosWVrW6a96FoumgcqfHI214nzImgVdAE7G2j+6W9pSld2tdbm6vCK3jt6TZ5XwzNVLcmlt1ZTwSYfpHOOuhGKg7dbMPCsfa4e2Xmveblu0FOyH5ty1oK8MUJMjDTK01cdmX9B3RFscUTaWY4xNGQtGViIoRPQNoubUB+ziC0YNtN9PH8MF/jCZTmQ8Gsv+/r7u0Mu/8bcJC5smrDY9t7qWMZkdbqPxaAUcimIfFJtWTGpNUxqZaDsy29HEl8XNuFdm2+l004uKuggIHthaXtOFFhMX7+dQ1B4zFfQK+g09qOJFzRZq2ILNpkFTQBdUX9AdoJnlQjO+Jkxf81UAvp9JB2JGVBhXw5OxXW4s6+UT9PB05pIuFB6dymg20deSfWriNKvDgsbpOw+nc3zGcqQBrEc5pIzIJ7rsALQFGvOITJtXbwPtI7HeBvD4Bqbn1dAwIkgnakazDBDlou0oG+s1uxcF86Hm3YP6tHyK7BnyTzKeNtBvm/8PMi70kXtCSRNmqxFQ9ndi1KdyPdBT2M+XCzYLRvFVilMo0S+TAAxmyxphLGiu4MT4RTTdE9kC0nRpyeN5API5ifQI0iOyDtBGyz4yjaBeliVqOl3I9og2u82CsYiTswJ+Mp60X+wq2nzUqB9UX0SwX+A3lp8o4AYuzJ0ekj/uHnD03QJkkE0XjEVgbhQ1NfAaeqk0tFAH4q4D8AVDY7SKFYOOC9tCYQJTOygYqdAJnv+u83ARY4T2M+bZvQjf50E5+91AkDFF2kUj+umy30fGoH0bJdDVOhwskZNt1OqWUM4p0OehsaOJQJkDgOUsA9AHvLG8CMyeJVSMMpszGZzGjxhxKYDkIenB+pSRBKSqAbRMJy3QrRja3LDL+ZvyrVSQyjOrCc4xFrupAc/0Vfw4q9KODxH5vLehNkY+CLTe9IyDOOYc0ERttYu03KhoZx5qdug/1ikXfVFOCz4gUCTPBggSSrM+aIv6yO0GKCQLrxXRR9Enor0aPaKpK48+LYKkh5dD6bMmDI1usk+QD8zIaNE4yodfbN9BoU/w2myCCYnIt77DqyOeSIOcbQpIKnGwjhqtouZQmhX1PVBtWZTBJp4lMbaSoInjQF/TS5p2WDzFViz3wbw2g99lc54/2gcWiYu+I1jvisV2GFEA5TaFzMsOa+iSmadfi6ONlums280aLerVKkaN0jVpGc/z+X3zqax9ghGA+MiDjbnJJB0xHpTtUwQF8xoaX+rXEsolIX57BX+q4Dqu1guQj6kKdYgJixuDkBloxfpPYRraBPSivWBDk8WjQIZPHwDQXKroIW/xCX9wYX2uOW+kAmAN1CfsQh89yOcxm0sSXCrZuUVwyN2mfS9E63KCm544856UYLrTugP2c4rA+SMt8xZB1p03Fy4aff2dihM7DHQCJwsFagYzz07uOTqthnk26ZsTD3XSYnwo53htXGix4ZOof/wUx6E5PsIsVXxUCQtTP6jYXwNq1pDjauIpMLoNRC3b489uj1IY+BaLCtAPdEwPFBI7YLZM9EQmsGc0vMcSPhGd7geP22pTaNVvHnosTZ8hHi8VfT3CHz7KZb1gWjIRB/vF1exgsRU97PJMxmqKQrdJb/EgaUyaGacxjLpSEAdjUDuICh9TE64d1Eq7eK7YOrSa57B2LhcB+67NBn0sAtqKtlFeJNZsA6Cdck5mDbUZBj3yosGLQl+bOcZeekVlKqt5KfpzEcGmDXS8/OMkPZgoL09MxI7TfBYYYrDH3FHrW7On9IaHajRayqf8sB0WnxcBtI9tzDrwwd0KYGImb9UpMPNsIjpMrBTYfgNEMIp8RWuSLRSgKR8iTDU4L3KhBztaUjt+SYQBbxQcGviO0Up2BNgWy6iD/kURNSt0T0b0E17Wl1qnpNE9kHNjnq2u+PqAtheJuUsOvFMLxjzD4M+TeZKIncg4cseyPi9W5drn8pDAsDBJyBsNFAx6EzSazSErmqSj0KcosVAWyeSLkGZWCiFbEcSyu3CKxqMZKKR6ubTJRYoy4FImo/zcbhMrJCwYbDecWLs0NRrUBS3ZYb30lonaemEVTx6SHnEejGZcLapfIxVBS3qEAmSs6pad45Zgx9h+ILMKnHvYM02Tw5lknYrefispAyXwkVsdNlCeiluaPc/gJ8I5cBG2LjKetsXKPlYt5Y884kLQhd5ymkxCC7ye5XBl2QYzQFOsN1BC42cqjP0JrNC+ZaFSOFZDCd5QxmSe0VVQZlpQuJnTg7jQKYe+mOmHxFcBJ6lMMmWy4Bkdh1wvOOWjApwS6PIiAOVmkUJFccpE4ywUy7mlsNXgH5nS0Brcc5mxrYVgqigVNELIKFHqMSDqRFKJ5bwTtU//ARfl7zzofNKzhiw7T7eNDxp4NZzVZhui7Iwu/DMGPPFpsy1MVMpqbrFqGZOZNwAB01ae0SCKKor2XQin2TOlqms38oodJNhEor0yde1oP/FvFec7x2FysKGINwfhzG7yqQ58gwdZiJgNVUEZmlyUOIHNHu4Lldj80ivuHjwGKxceYHU9+qPjahH6CuuvApYQj90/gZzWfXHzeyco2u5DGZj4Fp/WZxYYtKvoArZAqF/rP7Ol0H6zc1TqJBPQ937HfTvoqX8sMGrDW+gyBMrWLQhE2dbOQq+B9Nj+eaBsl02PeSpHWg1dvBrot4+9UwtGwyh1IhvLfCDr1mxFWl9fQM0GkH3VkHXp26hWxjjTGiabSfmgRNkH9RSnvBRBynPRwRe0AKeh5JMTHsy6s12+lIHGL+IyisrbgC7xFjQ38BQsTc2YhWZCWmbylJjac5mprdlqibXAzRUayDSnBRSnvYZK6OOGXiZziB1wDZW1lbaxYIiSPMeNfwV9NDrJNmuNnOaQ9XNS2mIVPz92g7uQIOf8qdkmhkJgHYjjLKMml21FtPnp8gtazVYNNf2M7BNofQ6jD6KhGADRpwHzZGpBnwf0Z3aLTaNhwNi7ur/s8wMV8YEFIU1tIRRTEDkd72lFq7kYPunVeqkYykQzoainMvoHCqWtHaVMNLa1kHkOZ/Lok1xRhDmRiiVyyfYFhsQFYaqNoZL3QKtKiCWeTxynOiwpUNRkGc616nAHA/jioPvB8v0iJMQLs7BjizSIZ4CfU4/vInB6nD0Z5LibexiLBNBHFjJIkIlyUZdloM1WH5m+OOW75KPxSF5+8EAe6t5zbCNaEzIdOMf2JSVvg22BcamBParxNR5sawsYn71LQc5kjGFy+OjUvr1pA9PjwcD1R68LjKabbBXh73EwVvpqzOKIWApAjx+Pm16AUkwH76Un+AYp4in+0LblyYmsr6/Y18bt3R7fIB3jdzTUDmjwP1F/WsdOATT4Q5zHoGvdYoTNsdqG00QbIj6t2yWP+UfTlL+sdLUDGtqKX0Vj3ZqhOstD/xYv/5/rAHXbEZgn8wFdxOTvg9433maRVZVfWRrKsp5XtHFD5dbRGwjP5BSIS22gp0DkgmEFZxvok33cxJCQz0GUi7ptZaDmo49MG/rq1ui2YJBBQCDTiEiHXJtslmNOepcPgjJItHFRMNuaY3zee7Qn/48/+m351fv35E7xdXw0kpP1VVkajdw3v4KNr10fKA0TBINcZXCPAhNpgN8LXRnIZKwyjw5kqBMQeieryz5JlD5YW9OJp7bGOslGKrc2lMHhyG1j5B4qbWPNBv2J+pbDI5Udy0R5Q6V7zDrxYFd9LiEWTA7ErOpLOuHNzkgnevmKuBor/YjJqK5WVrVtKyL7B9oOpeNXtTSONfX9iaduyZW1ddGWyNLaiowe76t/9aflpZVlGSMejRf3Igbadvx3fPg6PDiUodaHKoNFZvRYbUNmTWmr+Fr6RMZKW15f0zarP237yYHaUv9L2j/L2rZjtTNR+yfaF2tbG+bL+gjtxOTe3pSR1kdHKqOTflXrE/jVhQAdg37BojbcXJdjtX0C2xrEUGkD3Tlc2dyU3ZU1uby8Ije1jc+tbMjN4aps6vlYVjn8cyO/NNWkBm2hQYdrwqUjitqJOPqY6IE8xvvqEU9i7APRbl8fJqcHXcTDKq2IhmognXJR14y26IMedbPfjJqdbCMiyqHcx7YKysOjQ/mZV16S//alP5Q/vHNHJwiWAJ3Q+CFYe8NTuyYO30oobmjdh5LWQIBd+sY7JHgoI/FdGGCo0CkT2Q5aNFkdvHj3t8VAYW0zO1Zt1K2dmiNEbApsB6M0iEMKg35G1+hKhdzxxHcKSsdvcFzWxezZK5dlRyc+Jo6J6pHqdkAZBPjAnUD60zjRZpODImhQ0YS2YMJhV4GbkWZby9bUknhPxh/C0lzrFpv9wRJc+cIH26DG82tqSrZM/Vm5JOhDFD/sCx34X9XYr6zqYqGKtwbL8sLmtnz2xtPy8a0duawL3CrPk1o0l01tCuv7EAMwE5PFWQfkIn9e/YNAH5/VBaMNMEa5WI5ooxPkI6GMBGSdLjt9fETUZI1WxMYnY3lt76H8n//g38k/evUVeUd3HEu6b/AZ2O5nBrAVRGHf4kCijVheANDwJhUnwVyZES6DatMumybuzgV9UqEEeZtUxzaJwVvVXcazu7tyQ9+113SX0IVixmCuAsxdygGTK8QZmoKyAHkAaTVQJ+oCNVuUA8jDomG7Cl04NobLsr28Kru6YD61vSOf2d6Vb9jckefXt+SK7sY4ftBvsIBPouyjW9T8xDjUli8zXOL6gWMlj+tmDBVkPtFGXwRtMQCg8VK314JBYxHRcOR12anJkZb1ov2INnrGvJhAMwk9YAcx0Xfb//dXvyz/w9e+Iv/m3bd123ugPH2Pw7so5O3YDzHGtvKiqLUn0nrB1PQdVo+uqUf9w+TZ0HfbT16/Lpf00gNb+L6WsYMB4hSZR/MSji7R1wYw1XVkPjCr63zSXNdp4NuvmNlkULr255ZeQt1a25Bn1jblk7pofOPOFfnY1rbcXF2XNRsL0IJ+iEH1sIPCebFFxdhT/jxAz2yU8xnHSI2W0UemL2Ar24m0UwtGTSEDMkDUARqjiQ7EMgAZ+sr6Fwn6iGhoSOq6RCtfvn9H/u5LX5a/99JX5N0H91UOlwo+SKIFD7dul/B2oYSDDiS4Cvz+cN0ImCEtlufCQ/GiheLtWsO/YNDr++evXtOyT62+oXofYLB7HZhL0yK8aA2kEv90HAA1mqHoOmZ9EI0uLnog0OgwQQneXXnK83Nql05a29VF4rOXrsi37F6Vb8XCsbohl1ZW7J97c7fmptQSrl1RAUOTt1etap7bwHpNJvNqspivLAPRPmmLIPpAubn0K0CZvM4dBgUjQCNqOpFG2dxA5Ejg1+y1+c20DNqKclkPdSR0CsjGxzcd9W+ilyY/+dKL8t/90R/Ir9+9rRuMkQpo57mmHYlsFwDNgfZ5Kco5e9bOPMxr8yLwLbVG0LQb9wVEtnUr/szuZbm2vaXvuC7z4QDO2/qni9cF6tQaxvGnYwEDwP73iJE1c3n8P5Kl4Yn8qe0b8oWda/Jndq/J89duyGq5T2IPiGlH4oU/G0imGs+7MZq8dk5BAz/KZHnUa/QI8s6K7CuWLdcDMDeQvqANIDrMqPEy7TxxtKFme6JJT7PiRF66d1d+6uWvyv/1q38k9x6+r4uG9ouOANyAawaRvogazQF6pOV6f9AHQD/Zb5Rph8s2UWhfrC4P5drWpnz86lVZweph23PwPLswzGu+8tEGa09FDqerMoy6gcuEUmz+30iB2/M3MnMO72rf/mmz5ogEBYtHd5lrSyty7dKufPbKVfne7cvy3VeuyZbuzFwXC46pFT1g1l9fxPGJchynrD+J+ZFt1uKwXN/9jRMD+SCQA5kHyAFnkW3TtUmmf1gM9H1ElpW9Px7Jr733jvxfvvT78i+//jV5rHVKA25ieiKzDwCkUG1Qo2darMN2tHuRoO0d3V3c2tmWp3d3fMI0/rSyCNoaZ9CeVl6Xxakml8BZgD+l9+uT6FFbW0oOtwd+tApq2I5rVd9RS3lJhrpAbK+uytPLa/KdV3XHcf0p+fjWJdnCL6eriC92WIRQQ/rwkMfnecCxglTeThx08qQR/SzSoL6yNbkqrRzso1Nc72plY3lFvkGvW3/k6edtm45/sTirOVubtuW0/Y868NzB9tqq7Kzj8SWFHtga5IskHGq0aWW2mpPD+7CNP0ub/5pqKtR01AOsXiYCXu4dkwPC5Xzi/Jr4iYz1zeP9x4/kKw/vyb949w35p2+9Jv/uzm25c4Ab5L4k+ZRy+/OQxyTqpNXG6yKIti4CtDXIiwTr53HYnIRkex5qvmmnLZZ5fnI7ZmRtUDjPv6zk5Rtr6/JDTz0tf+apZ+TKxmbjH6nmb1qf+iHa4u4LqtO/p1naooAOPhlZX9F3TN1hbK6seOTFFFqDYt8EaK+UUqSDRo5Ta6+oAZymOGo0YNZWG5Sr7KqcXa7gXhUWDed55FrTMYIH4qLGWN9c3ni8J//y3Tfl599+TX77/dtyd3SAx25UCe31FtfQNX4yryY3T6aGeeOkZqNGs3FTyqcQA4vliDZ6RM0GboLCeU2/RuuDs+gYVM0vbzE83MaaXtd/7NK2/PXnPiGf0mvWNTzNqKAPHL0UUaeeF9NmTW3XaH1hAwcnXncXO7owYou9XO6Kg4WZ4bna7puatmNhDfSS/P5B6d/EM36Hfk3X4muAgD2z5IcZTO1bpYigrsPf6j6hYN7+nwnKLmTPWzQ+naTQSxCVu390KL/54D352duvy6/fuyN74yNdNLBdbQR7I4/7tvFs5y+BujFFdNEyHajRiGbB8AEzTRGRlnlAdk75rMdyliNYB98/xZjKZUR/QJap2TkFVYEazq+NCxuYeB3L5tKq/LVrT8v37VyTZ1c3ymf1Lgs9JuhH115GO1B2BvIanXCap4yoS2Qa630SekJ7zr6HcUl3Txt4bFsHuX9T1PsJR7R2XnLpWfttMFbgz5wS6CIrfPCYAKMjJTqI2afXnYgydXHeGDPKnNNYkHxBUT7muhVVEp+OacJX30HCf7C3r9+jn44nyoaBEzk8OpIX792Wn3j1S/Lzd9+W9/A4v2pwfOax5+eqOJ+DLMd6pNNeThGLxpF5mENIwPDv/J2/838CkwZjGWgzmgMgsv4ioG6MJeZddrtkaBOJcgaKFr++aGhZRXDfG/cvVnUy3ZuM5HV9Nzk4PDQdbFEBXOs2D+xgVPYE5AkUcyIYs9OnbajTir4paiylggzgx6WIcmV5SW5ub8i1zU17BgP69rxJNGI2kHcns9+RoslIs2qpG83qXtDWNIwsw6O3RBH4TMjAn9ENZU/Q9zaa28DLsnZuLdekB5xz/1wE6UQmOn4eT47l3f0D689d3bXt6C4VLnxMIeFoS5FBo9Oj6xPW/gLOhYyZ8VvAyUy0zYWuOVJDlOejEeYpGsjGUK+lNpyV14V5PoE+Mqeh8kHFik3dv7T0uRu35Aee+7h827UbOtG0u7QP7c65jobSnU0Kpj4U5Eim8eAdw44y1D7a1AF9ZXPLLr0g4+2YAvVFUg2xN7JcTdfqhYiBOk1kOp80kmsgL/IjLSagrcwaaZb0gBubHoNVDEe6YLy897788u035NfefVPefPhQqYWpGfpjel5goVDSmO0zhqMMy5lWs9NGb0OWt7qeAPTDBwa6g/NYBlCPAX4QQAT2BS9dHFD24YGVtMSk6cWHD+SnX31J/u4Xf0devf9AxoibYeItRIFjKV4oep0enEhkKppjsD7VF9oF1vrKin2M+tTlXX/4yHgQNDMqj8r5cZG2PmqYtq00EN1oHe/PtXzbpavyV25+TL7/qY9pH4MNHtiQR5ruCDjegDj22+bChzFHAPq1yDkokXelRVDTR4rIdXZEls9yQJapYR4fwG7BvhWJMg5ahIpRtICH/z67fUn+2tPPyQ8+/Yx9qhC3gNDxx7q6/TxRMGAEgxwLIBLi1xeiBQs3N/Ex6pWNLR3I9q+MNZU2lMZTFvVFE8FypvVLGrGlGu/DTh6bd7L2rWa+GGivaYb92uhoIm/rJezLSyN5326CUhwjxLf1KNmoUwMc8xmL0mvzIdIi/TwY8BOLbHDaOf0RbURdlrO9zhuSAYvGAczrIOObjLeTdR8E2h94gQ6CAl97/l99/LPynR//pOysbfjzOdBZ8q+I+7WqvtzMBSU99ID3Tvn4D5WSXBuGtKptWV9dkUvr67Klix4XFBNCArTOpW8aQ/9EzKN1JcdF9+MFJesd/KCQ/eG+qPUVKgPtzzHeXXB/aHlFXhiuyu5wqEuJ0lQZcli+bQlP20CcmycxxhcF7DG1wd5i+gYbDdYSZTKyDJDLNZmMNplIr/GJKj80HWRU7fpSyyppX2XG9wl2Vlblc9eelv/kuU/Kt9y8JZsbumioHH6CFs80+B10s3LmhNMwm3wgzUsqqclMaNIDaEZ34P96LA8Htljsatz2Uw8WsPMBdknJnPekUkSgh5Bn6B+ZhHOEDlrC19h52xPfw9Ie1ss7vL7x8nX5c1efkm/a0Es+3ki2WabQhQJjZorT4zGO0XkpwsfBFJmfdWspoo136sGtjHn8GrIToM1OlouIOl1y81CLBwBlhq7uuPgj8znlBPy03BWdcD9482n5S7eekc9c2tVJWH43Ir1jfFhoHmMuQFRoHz7NwfMWu+sb5SEtfynTBQ1eRpd7czi0kXsZeaSXqtb9xfqppCgSTb2B1t22Hx0uXTRmbT2xpIc5yXcG6AV9aZFjB0e8aTyzuytfuPG0/OkrN+TmxqbSbGU2PqTsCVLAzLCtjrYxuggwX9rm2VnmcQ3NgkFnTLEBlImgHMtdgB3K0C7qtB9Bu1meiLyLRPQRvNmiYe8Myh9q5RN6afLDTz0jP/j0c/Ls7mXfiWiyLWqIfZEEPwDbunAKEQOswSqGLH4QBz9Ph++NYOHD1jqqcIHQYDTXmFA1KM3/rGz59BDyOegpVsV5dHujrxPvHzvpuquAFpZP3BvCD+1855Wb8h2Xr8nzW1uyqm8mZlUP8Rxx0bDMO/5cyGMhw8dXf0zH5GnA/gAH3scgMTpmHakmxxRpNfSVjXIxEW30GrpkMo/1psPYaRApPP461XfcfEb+4898o/zFj3/CvnhkP2zb0sl9cA7VBhYmCjoS8R5YxqV9XwSPt1+1j1F1EKc2mlihATh6wtHvMTVlvExuWi5qJsG65yx7cszSpjw7KNiKaarJX3xivEilzRWa7Sogry/8Gwn8jjJ2ETsra/LNu1fkL61fkU9qeU1l8ePRx3jA68QuWk3H2qMvvxEKY/pnY+rs4LglavVFkPUBtJ2wb6tGQhuikZr8PD5wXhny+sQLdMmDR+pEF8LaDdgmEpWFPM7x0LaZInvjkfzbO+/Jf/eVP5J/+tKXZX90ZPSzvWtM23xmmFu3gycW0bqBjujt9VV5/vJVvRzx3QV2Qrhjizv6KONbulhd0CrvE1tuIKX9ARoK+ANdK/pHOqSQTIYoshBs6CaYaAHe7Wq/xqwCcn1kzbEXe6Jps1U0aXlKQ89YLzT9h4+pv/XKVfnbH/u0fG7rkqwPV13BZLEL0XHFMWGruJe9rV7vO55rsHN2Dv0MnoM2mzP3MCDM1IXIz/K0Rzp5yHMQUQ/IMtRnAmr2I78NWa6xE8oZoDrHS42YKm0OVuRzO5flv3zuU/IDzzwn19Y3VALW8G8JcCOs0TIV8AZ4BFtz45V0Gj6AYiJO051ndStr0sGJgYxr6q3VVbmul1D4zoj/z5WioYuefY3d7IBWdDVhmLsMDp6H4mxFk82FmBSgkW5lJzsKfSYVIJYqHxMtJkNV8HSqkE4lPygwwWHffcAVF1KrNy+XxO+HfMvOFfkL156Vz27tysZwRYVoC1a8DJtm180Y4vmL45LIdSLT3U7dBtBlZxEe6zP/yCgKMRAiG4j8xliFBmRbBGSyDuvZH5DtZJk2fraZfRJZv4GK4IRj8GNz6bMBPx58LPf2H8s/+vpL8j+9/jX5rffelTuPH/swwF1z6CFpwcY66Opj6rE/EGdrfAH2693qAd8Rubq9LU/tXpINPP5d+F1AG12ujzTRLWv9qyL9LWZJ9NZsj1mtTydqf/n07gO0vngvtq27NX58UgZOtIVLkc9duSY/dOMZ+cKVW3JL3zBow9TDuCJq569t/LWd7y46kHkXbcfuYTDVDAA00gbqRVtApDOPKfqjTAZkmLJ+RhufZdpZBK6rsXoVRTvY9wl0y391c0P+8q3n5Ec/8Wn5tptPyza+qKYv19IjPpu3XGk6yIKlBVHXA5Ucz0/sI9Rt3VXg3oV9KqKxWtgGj6yWph7q/NNpPqzPrVTT75NOw9qsh7nJxecCZ8tkVYnRIoN3u4SDMcajRfxLBvxwzvfref+z15+SWxtYLBS2sChC2BxzcdzlMRr5kd6Gmkz2QdT8AjVZgHayD8rbo+FgZMPZIGgRmQ9EmZq9PjaANjtAmw3Scx1o80NAtjMWY2FY4bJCK1aHfU3IdCF4Y3Qg//Orr8jf//IX5ffeeE2OBt7h/r0TFSv3PkyeembICgk1Ok5kKSrYPEQ1yzuRSzqAn9q5ZD+9t6KLmv2jJY3bRWr+zooQ0Fyc1W/0gTLt9LHXLz5KoZ/wqRgeyGJ/uRc9j3rEeoBPRK5ubMmPPftJ+V5dLG6ub9pli18IAioJG6xVxlUcm0CUIa9rzPaRqcHGY0+dNh+2YODTj8hguc0BjQHzAoBsmx0g8qJfINeBLjtA5C9CQz36ASiDhQJH3ZD5W46ScQ3r7ygDG2QYbG/sPZR//tYb8n975Y/lS6+/LiPcTIWc/uHCD2uG6amBZvqiajRiOvmn8TitFrtByeAsnUxkc21Vnr58Wa5vbcv68lDGx/jPbb6zoU8Iu71SOTPUCEz2MWFyRVCdN2qB5hSPNLbdk4vMiM9BY6IHrHd0N4gb4LqFcJoaAN1/81VLWn9eF+If/eSn5Ycu35KrA/+HTxgH+DQEbwoD6BvNbeQxldGMsSRXG48fBnIczQ4jIjciD9Aon3kR2W5ErUOyXyLKdvmLgDwS5KNOzQ7lyCMamUK35yx0QGMYldEOIYwXw+h4LK8/3pN/9c5b8t+//BX5w7ffkgcHj1UGclgtXB+wdQdmkk/AY0HJB6zJoQYz07CnAF0z/IuAW7u7cn17xy5FwDjWRQTX225PpSBY7BjJDoqa3TmgCk0YKvaynNdx9KUYcJrXjWONBU0P5Z4RYy41O3Zjar8P7NwWX34pCehSoedtqH372Z3L8gM3npHvf+pZub6yZv9O0n34eeKp9HM0ja91XAXUZNrHRneraH+e3DzU7NiCUcqGmpM+QfZBtFOzyQCBi/BH1BoORDrjYZloyqpq2lwdkDWXJ8xOdNGYyHv7+/KP33pVfvqVr8m/ffctub3/yOzYx2vQs8ztZH+5DuC9isOXiHI4rg+X5cq2XorogoHFAjzI6MHLJglZ94wBDjAO1hfHrJ7Z07/ZNtD7PEzlYMdjKnGaTZRw6GsPiHG0Qb2ZWfjU3jZnxcfSUNaGQ/nG3cvyfdeelj939aY8p5ck7FE7QryUp//ysejPAfvJzlUPNOf1Q8LMTc8PG4zhImOpnZCuk9R5AkGySW8FFdZkYrjQQMJHbUO5tbkt/9FTz8nf/vgn5bufekZu6ADzp3V0cwt1qDRwf1PkepGfVdI4cVSixoL/A3ppY01u6M4Cj4DjW+vT+ItDTRzk7sGJKLOOVyPcKwGux5fZK30IgDar05WmyAvY1GRNry31R4wYFVuuBgPZxo9C7+zKX7zxnHzP9afKYlFgbkqt6W/Na2PnDLjIeQDMs4fzFs8dEfWWJhP8i3FHFqZgNhQNoAzejNFQZ5k2Mj3WiRrtrIg+59kFnzyWrW5qJzLWhO8fomzfYgWduwytYweBF7az2Nq+/+iB/NLtt+Unvv6y/LOXvyqPJiNdVmjfjlZ2A0QbDbF4zeuadBHCTTj817Jbly7J9Z1tJR8LLqPNSpFv1jXEaJQ6rH/Q5lKfD+1bZHaYIvav2+z2OwWksiSMJwe9UbPXAjshODv+uNXS8rJ94fBT61vyN298XP709RtyeX0dgkW2nGut2+Ul3hCwUjexTv1y3AHNmEqADMcc65SN+gDrWbYLWSci8uiPNlkHjMYFg4aiMEGlSMugUchQnjTkeJKSdYJyLANRpkYDSK8hy/K3K0hHDn36ZqLN7NPklIS63UHHYCo3EU0Pg0zr0IKGaUFWCbgR+nA8kT96cE9+4pWX5B/8/u/KvfFRs8ZEH0SdhnqpACDgITDNLu3syFOXduT65oZ9nHpiq0UQVqFi0Y4fDGaCLXlf5Dihn20s0pYFZFXU7/kM5eblK/L567fkr25fk2/Y3raHsnTUWNejfzGs8C1gN4+KxzlAfysftTyWbLzMnMjTiDp57IKHcq6z3IUs11aPAI8+Gnk+uEUGgJyGIj2DMkRjtIVO0H623eUroqZH1PTnySORxpzy1J3WcdQT2ZjAojG174tBoRld7DHyl/YeyM98/SX56be+Li/evSOHj/ehqgNMlxzMfAN0LLPFANfBPvfdPmRhz8tiX1W/pYsFcnxPBAbBg28PlHYjarQuwI4FUQD989pYBG2++sRQ+hNHFNAnmlskfiINtOT0Y3l+fVu++/rT8r03npYXcAMZ/6jI5P084BzYuWg0p4BUpHL81EA6xxxBHdKzXJs9ItrLsrRN5HpEzd+pBYPM6HRR1BxFgA4Z+mzDPH4f0FdGpOFjZYAxAfTLGNrsRDBSiJlkeafB7MdHrF/deyj/+NWX5Offek1+985teW9vT3ctuiuwBUPta6ZHW4/8HQsmEJPm6h/PgFiu7zxb66vytF6GXNlYt29GmpBqI2wP0w4zsAEOgYVw2g4sGZRlXlmt+HWfNRsVtNrzdlmtMWWWldsQKij9j12gGUBd5f2vOOI5EllfXpHPXr8uf27nqnx++4p8fHNHNvSyxIULVKfPWCCiHPRqyGOuL+bZnmc387O9mv4TWzCikzZ0ydWCPSva/EQfSKxTnrQ2/RogBjP2NeZydeAfx2qux9fuvCe/cudt+cfvviH/+s3X5Z29xzLWxQQDekkvM+zjV+jYC1pFs9jDF8i21lbl5qVtubG1LStwprCr71Kmpus6QMNfOVwMij9rNFDaGdG33wwt9jzsOo1tBrInW4dVGncZIGZdqDnOB75tygXaflxIF4YXtnblL37yBfkzW5flWrkEMRk9NF7xl/x2oTknjD9hHr8LM22v6PfhZ3qOJ8vYx6ogZOOnBJOhiMjrkovI9iNoA6AMbUdeBPiUrcl1+arx2mx12vHRZANSC3bPA/C6DznQHx0eyh/oZck/ePNl+emvvih3Dh7L4Rhfh8a01w2GrjITU8bAxmLgbcc2GL9pcXNnW27pdfVwqD51vTc3xQcwjd0yg5Fs4F8szBP7RB1m+xaLEk9zLhYzcRT4nSVfJFBqHpHX/kW/4vkULMDXt7bk23evyV+5fFP+1NUb9ug3gZ/kw/4TsmajuOCYiOMkAvQsE1GTPw9gL9uIPmKcXb5yzFl+ZocBRMEI0KNyLhNZjqBM1m+zQ2Q7EdlmG7KPKN/Fm4c2/9OvMyvPBqkuHnad4YD4eHIsd4/25Z+8+ar8/VdflN965x25r7sN5bpdvLVheOOvjHh8NwT3LPD/RFaWh3aD094xi38Maod6dNIMSrgLwey4e4Rih0XsMI6z+O5Cr1iKb4xw9KmeXa2pAjLcBBpO5HO71+UHbzwn33XlptzSxRi/H6JnYHoOcXPZnGifmo36GMljJ9eBGi0i8t2neq3YAEjP8kAsA/N8AlEGtLZ69aYnUHNaMw5kWaJxEviRRps1uYguf5lXQ/YRdeb577JP+Rl7GFCWO3w7i4KmaF/r+HzqvcPH8tt33pVfeONV+aXXX5M/vPuejIuYXXcj6SDGL2bd3N6Syxsbeq29bPr6pwkvAEcqesnozmxQa2PGtD9QtuIM2uhdWMTveRD9eN/AJh7fR9C+g1sdDuXa+rp8h+4mvuvqTfnM9q5cW123j6jRMNdxO1ZSvZMl3Ph0KuKEnxxvbTx0odYn074/bZ9Y1A/QZq+PLeoiNQtGX9QcR6csA5Rro1E+y7F+UYg+5iHGCuR450NlVNasmLjqWVmP2AAUEyZRXD3QS5SvPHhffu3dt+Wfv/l1+Z07t+Xdx4/laOw/3ruzvqo7i23ZxQ1O3VmYou6TsUm2HQaMFrsAmuA+rTrF1GUnfMJAFrFnI+30LpQe6cSiNmuIfmbaoUX8QtZ1XRg+tbMrn7t6Xb790jV5fmNbtuwfOvkLMC3sDJvzDfoMd6Ex1YY81oCz2ozjdFFQBza67IBnC4YV5jiiTDROZFqsR7tZJ/OBKHNe0D599UEtXtL62VAZ+CxFrXim71L40RpaN6pW9Gq6yJ3I7cMD+c2778jPv/Z1+a1335FX9/Z0t3Ei17Y2dGeh22VdPGDDttiahvqueWJbaK0gthC71TMC+0khuqhE8IEAMZhv7QOcu6HuyPC4/NMr6/LNO5fl81duyLdcuSZXltcEyy+6Cn3oseuxNAJfKEPFz9psaxYZU23IYy3bJG0eok4f+QzqwA5ttdlpbnpapcMZZM4STAT9AG22LsIPEdvV1sY2OnCmWGAOKpr7x6Vate3wiUxweVJunhURg3/kh4Lf4LxzNJZ/8dar8i/feUNeenxfTvStcTSZyERXCt9UY3dRdGBb/+ySm3YAI7ss22jEXohywWaDLr56LWx3W9NvQ9/4gA67CEDZWAxWV5ZlZ3tbvvnyNfnunWvyp7Yvy9NreGLTInWXod/sPkWpYhHx20dY1injMc4bT8DCYyeh7/iDHGUvwifQZscWjFKewTxFoI9MRtRBmbosR9pFoivWRXx22TGAXWTwvypA8E9LtG1atY9OrYDk9mzguogPS6Ud4J/7jg7ly/sP5Tce3pXfevtNefB4Xzcq5fsoHNXNdQ7rUJ+W7evXpWqLSi9EwamtKab8ZncDqK/swmJR4mlODX1kiNm4PI5SKbh5aVe+afuqfMdgQ77zY8/KZV0o1paWbSExWB/Cpys2Z8LuWaCkdWX5TVNPNaCNdh7R/jahOaB+RI3WFzGmNpAHOYI6bXrVj1UB0Igup+cB/dLXk/LzgcLaUk6EZVrXv2nbUC98DNGONo9UdG8ylttH+/LHd9+TLz5+IH/88L68+WhPdxxjdeUDGxYwsK0fizktWdm46Ge8R9oEgSCYgGlqDCiD7gxIT1GES5x47NlLOIKHbbsja1kztRDpBiXoWXchK0GCUkY0q+YJf0rCcxP+T6WMbTz8tzHU3QzaMbBPOW5ubMg37upu4tIV+YaNHbm5siZX1vEPnPhBa4T7M0dA04dBEiKnFRs8qfHL+UF8EPOk5iPG0fqx6llRa2AbINsms0g8NTsxDqDLT5ePReJowzwfXYB3nKG7hwfy5mhfvvzgnrz44H15Y3Qkr+09kD3dheBSBXIzHkLz/ZInLhhTprcPS9csHYi1qW2Xj3C5WRoAChL41LK+QN70B+pl0VKaxWFoNLxWqrhEAA27NrOxvCyD5YH9uwcsDPi/MZ9B0gXjYxubcmV5RReRsqfoOAdd55k84jxjIeNJ2n4SWPimZx90dX4E5Lpkuvgat/GZIJdjZHleHFkvgraBLrk25BiijTZ7lMVbK/hL9vi4MeT+wb68fvBIXp4c2Uewr+qO4/bhvjwcj+RI+wSLB+aYatlUwwT0h79QdjQebQFx2MNh+sIRgpBx39N4EIOHy4ldvEBeBWEDMF0v6mKnEkXP7Czp5GX7AFdnseGZPDhWXdLLO/yaFeJz/lAF1vDU6wp+GX1LPqY7iM9sbMu3XLoqz61tys7qmgzxZTyTVkSfLUB7Oa4IxJy/OIly7bydFbQVfXxU0XvBWAR9OwByUaamF2kxTsqgHmksA1GGiDSWgVodiLQauuSyX8qAHv1FGyhj0BqMrjQr+qcp0MBOAZPz3uGh/OHDu/J779+RFx++L+8ePJa9o7GMVG+itrB5tImLshZgzuuagFDBxD/G/RX4UUFQzS+OiLMQQJveP3E5XPNDx3hW95jtAkAJ9tGvMREP2u73XUwWPBTgFnUto4onWEHgRQRsDIdDWVY6FgssFLfWN+WTJ0P59hs35bOXr8pTumCs6Y4CsrZUFFs1xD4neE7IA1iPcpGGPJaRU5Y8gLQa+sgAtB9Roy0C6NJ/F+inuYcRwXofQ33Rp2Hgx9UceYwh6ufYsmwNNZk2PdA4ccmn/y4/NZk2H1G2Km98TTrJcK/CpMtPx+HJUfwntpFO1kPN7xwdyJce3JHfv3NbXpmM5a3jsdzXncfkwSMV1n41+8WG5qiZ9SYGy8wlpKyKELxU9IomSCQobOqjnllq1NeWIAxpc+IxACajlakU/uGS94FddugigV9ov3TzqtyarMoL2ElcviKf27oiV3URWdGdxIruXJZLI2zhU7BPYz9HoE5eRNaL+tSJurHMHKCdiHn8iGgXyHWgRuuDRfQgx3lpC0ahG2J1XoO6QDvRRqbFehcvootes0OQDtTkanrxsgdosx3Rxy5pRLYH/pSGCaYymuxdGrBc26BH/wQGN0iP9bJkLA+PDuXO6FBeefC+fO1gT95bXZb3Dg/kbb2MefT4sUwOjnxSm0EtTN2oT83MXjFqqNwohBxkTAz9Az2N2ZgOxApKsxlRQMa/Fu4T2hTNWPRnFnWXMJBLuztyfWNLbq3qbmK4LM8tLcsLO5eNdml5VdNKWST8Ygh67k99lGCQxf5Gv+b+j8jnAsj682B90SLXxxZlYqx9/D4JZP+tCwYFUI/BRvE2ekRbQ2k32q/ZaNMHoi5BG7TNMtBWB2p+avaJLl4N2fc8mDzjtKlnBQMmBv4w7bhgAChCBc9s4B8svTc+kge6YNzWheLr9+/awvHgeCL3lX5vpOX9fTlS2WLRLNhCgFpjlzznAvAR5cBvYiRUqDFBKMF+kBivpu8xyU9kZXnZ/pcKftXqMhaDwYrc0PqzOzvy9Na2XNZ3uN3xiVzd2LSvoZux4tFM6UphNSvPRNJg6hMi7TKRxzp1Mw/osgW08buQ46ihTYZ+gcxfNGb6YF69JAEodBFos9XXxzy5Nj5o4PVB31jOikViibDnAUy32FAapzAWjGaqW+yaVNAoTjbS46MjufPwgdzTSXVPt/a39fLl9UcP5J29h7I3Gsmh7qSQ9vUy5lAXFNw8xe934B6I7xSKISSvNO3Bi/1m7UNCWQWLqOVYFLC7WBss6+XDQFZ1AVgbDGVdLyk2tLy5uiY3N7fk2c0duaWLwnVdMHYnukDoArKz4f8oyC2WhhWf7smp5hMLhxK8p6bg+WXcFw3aPwsYT9RnnJl3kfHX/ALZB8qUsQWjuckWEIXOghgMbTFnOdIpC7TVAdKILHtWMJYnBdiO7eiHMvkxJbTQPKoMIkLV2cyHwzAhbXHB9b4roVEq7e/o7tvbh/+9cffhnjwaiDzUBeKO7jzeRdJLmfc04X7Ig9GRHE7GcqR28VumeNkf/Kj+Cb45p478ZmzxDX+a4F970y5mzK/ycZtzA5cZujBcW1mT67p7uKGLwc21DU2b9n2OSyq1owvKOp7ELG3wiL1qPz9o9lDRP10Z2K/GR9KCLRglJyDzJM/veexb/Em/7XKY7b0IZNtE9oEyaEbXAzBL1HJU6KIDbbQ2PlJzE2WOHGikUy7TAfIiIj8i3sys2QAN5WgzytZ8RdRsApFeA32ib05BzfBBLbVkE8QXCTBMwn7lGvCq02s+0XouPvCHm6f4zortLPQS5WCsSReL/fHIfl5wTy9hsBN5rOVD6OnlA34k93g81jSSge4S7Kv2qodLpGVdGFaUhn99sKULBH5MFwnf51ieHNvP9m/oZcX6yrLtOrCwIHKL1f70pXbszgT6A0ErD2231pSYXV6TlvnCzWCjqyoOliWwn/GpSwRo0EUOsO9Iz6Ad8CKf+kC0QWRZpHzOaTcjLyQE7ffxR4COOn3Ns2m+lWhUMiOyo2wQ6KJnZDk2nqjZAfrYgkyMpc0WQHuUyfYzveYrouarTTcCMuBH2Uir2i05OdQFqvLZDuRT3SzAJ15awWT0dCxjzfGLYJNSBl1Ht9m0BUx3NG7f+x/GuLPAx594uhJfG8dlCP6DPBYCTA1MEP/kZhawoSImgxxQLWsw22paQbfpAxOb0pUxtZF8sV+YZxoQ+VFuUdAebWQ75EfQZw3Ub+OfFzX7jKfZYRCxnBvWB12NodO+WES+K+5aTFEm7jieFGoxPCnEdnT5g1zfeM7TN20+anEiZ1yR3yfWmr2LQI4FYH1RP33aQSwiW0MtbtrL9L5o9kHZQJsjAGXWIx04b0BnBfwxRcRYAZSjzAcVb46hC22yKM/TbUPWZb2t3Vn+SYJ+YjzIc2w5nrb4zho3/M3TBT/K5Hobau0h2uhAF28earo5jrb429rUXJIAVM5GgZoByJCe5dvQJU/fLAN97dYAG7QZ7WabbbSI88QREe22xRFzgHLnialmq0s/y0ecJY4+/tr40V+UmWczo8tOBHk1+5Q9TxxAjmURG20xAOeNg2iz13kPA8gKbQ4yKIcccpRt80PU5EA7ix5BHpDtAqBFGYA0ynfZJ6KNfH8mg7a7ZLJvoI//KJNpbba64sjost+GLrnsGzLzaF3+anKgxTIR7ZCe5bIM6jV7pBO1OhBpAOk1RNsA6rUyQVr00WY/2iFYrvlA+dQ9jAjSo0ECvBo9os1uF9psRltZJsaS44r0HE/WyXZ45zrqZRtA9EdEWwR9RBvRHxB1arQ21GxGzLO1qK8sF/1nRNks1xUPeV22iZqdqNflB2jjg57vcUEnjo1F/ERAtkaPiD4javRIi3G0+chyQJs/onPBIMhvCwL0LIN6l3xE5EX01Y+IcSC12Y6ADGVpm+VoI9uiLEF+pkebtBsR7WYeMM8vkG0gZb0aKEdZ2m6rE6SfF9F+9Ikyc9IiyI+I8mdBtJn9ZruLLhhAtkHUdLr8R/kol+23xdIl1+aX9VP3MNoAXg6gRsvIjomo1+UXcl38NrT5BWq86KetfBbQF9DmD0CZslEHWNR/m8+INh85rlw/K+gv2yb6+KzZiJjHb0Mfu+CRjzppXegjU0PU67JR46EOeg2kz4upZoP16j2MKEw68vhwCel9gqjZywFltMmRjjzy2uzFuNpsAV3x9JVrwzx98sFDuW8sRJbvG2/024a2eGpxAF22FkWMj3G0xdwnnijTFec8H6S3yQF9fUV02cuoyS6i3wXYabNhv4cx7wYdMS+4toAZAPkAZdpo2QYBXhc/AnJdixyQbdVkgHn0DMqBTx9Iucy+jzzQavdPzgrYJGCPNukXiDSC8WREOvX6gHrZZuwDouYbcgBl5/mmfptctg85pDhmIBP9AjV71Kvxan4iarrUQQ46UrSTadlHDdE+kW222WnOkRZUrl0wAjLZaXYIkJZlIy5KJiPHsIgNyGa5TEOZNhdF1qvFBBmenItCV8yg1+IguvjzdDPa4uiKLyLL9dVbBLAZJy/s5wWjhrPEEn0gsf5RBNvX/KZnDbUOiI3M6NNpXfpElmnTqflbRBcAnWUgywGRT9TkzoM+8eQ4cgw1vTZb8xDj6UJfuRpye4A2O9lPW7u6bLbpENFHWxlAvaa/KLLdPwk490/0xU4kQIv1Gtpk+ug+CUS/bBOQ2wXk+NrkM3LbWM/0Gmoy9DtPF6jJkkaQN89um60sH+232WpDtod63nmxvKjtGtpsRfqi/qJORM1OliOvS7ZvHF2Ifvv4WJpMJkqbv2C0yWSHtQBquqiTD1Am0y8a0Q8BWtv1J0A6dbJcttWG3DbW2+xGxPiiDtClB0CWvqJstAGQNy+emm/aj6jJZdT0UM+XBcCiC8Y8fgRkkegj+0Z9EXtA1Imo2clyNf+0V6OdFbRHW0T0EdG6w6CRjCwH1BwBpNN+tJnlajIA5dr0MrrsZlCfMkSWzXaoR9RsE1E26rJMuwTKHLRRpu2mGGm5DrTRUEdCmTJATa7NRkTkEVGX6LIFWk0HIC0vGLQDWrQD1OwA0TdAn1k/0mvng/IRpNEGkGldMkCkA+CRhhz1aCPSKBfLEYvQSUNCmWge3IrEi8Yi9iFLXERMfXxDhnI1WcZ0lnhqupFGvzUakWWAyO9CtEvUaMB5/GTQVl9knzX9TKPOWf0QNf1ou+Z3EZ815Ni7bFIWyDIXEUsf0E/1OYyzIDY8IjaGvDZZIMognTeuiFosBOqR/6QR/V10Oy8CH3R/AOyDmt8a7Tx9ln1F+4vYpd55YvmTA5H/HyqhOjYHcz1vAAAAAElFTkSuQmCC;" parent="1" vertex="1">
                    <mxGeometry x="465" y="236.8599999999999" width="120" height="93.14" as="geometry"/>
                </mxCell>
                <mxCell id="_G9GZHHv7lRjszB7tqQw-15" value="&#10;&lt;span style=&quot;color: rgb(0, 0, 0); font-family: Helvetica; font-size: 13px; font-style: normal; font-variant-ligatures: normal; font-variant-caps: normal; font-weight: 400; letter-spacing: normal; orphans: 2; text-align: center; text-indent: 0px; text-transform: none; widows: 2; word-spacing: 0px; -webkit-text-stroke-width: 0px; text-decoration-thickness: initial; text-decoration-style: initial; text-decoration-color: initial; float: none; display: inline !important;&quot;&gt;Retriving data for user&lt;/span&gt;&#10;&#10;" style="edgeStyle=orthogonalEdgeStyle;rounded=0;orthogonalLoop=1;jettySize=auto;html=1;labelBackgroundColor=none;startArrow=classic;startFill=1;" parent="1" source="_G9GZHHv7lRjszB7tqQw-3" target="_G9GZHHv7lRjszB7tqQw-2" edge="1">
                    <mxGeometry x="-0.3846" y="-11" relative="1" as="geometry">
                        <Array as="points">
                            <mxPoint x="515" y="440"/>
                        </Array>
                        <mxPoint as="offset"/>
                    </mxGeometry>
                </mxCell>
                <mxCell id="_G9GZHHv7lRjszB7tqQw-3" value="" style="shape=image;verticalLabelPosition=bottom;labelBackgroundColor=default;verticalAlign=top;aspect=fixed;imageAspect=0;image=data:image/png,iVBORw0KGgoAAAANSUhEUgAAAI4AAACjCAYAAABczybgAAAAAXNSR0IArs4c6QAAAARnQU1BAACxjwv8YQUAAAAJcEhZcwAAEnQAABJ0Ad5mH3gAABjnSURBVHhe7Z3Zd1xVesV33bpVpVmWLGTJGi1L8gCeZUm2ZbChwb3S3bDykM7KX5S3vCSdh7xkrU7oJiFN6G4coA2YyYBpJoNpsM3gUVOpNKtUk0rZ+0jFAhrscrlmnW0uNamme3/3m853TnlWKVhZ3aWc9Usrq7uSBccqI1lwrDKSBccqI1lwrDKSBccqI1lwrDKSBccqI1lwrDKSBccqI1lwrDKSBccqI1lwrDKSBccqI1lwrDKSBccqI1lwrDKSBccqI1lwrDJS7nuOk3x529ZcHHI8POLcsqDcgkNoViNxrCZWLDyFlHa914Gn0geP61277x6VU3BWl+NYuR5CcmoRq3HBs/6AVf6UTMITcOHcVwunvQFOVYBHff2xe1BOwUmGlhB75XPEL9zC6nx0zW1lx1Ja3U6pI6pDG1+Ft3czfIOdcPd1wNlUyWNw7wcht+CMzyPyuw8Qf+trJKfDwIoFJy/SEVWYwM1prIb/eA98J3rh9jbDUxIWZ4LgPPsR4uevYnV2eQ0cq9yKuzh1SD1+F75j3fCf3AF3Vys8FT5zfzZk0/Ey0ypjGlkbQeLubkbg1P0GGjDOyaYsOGUmD7MnxTHuri0IPL4P3o5GExx7spSGp2TBKTN56ivg7W+G72gP3P4t8FT7eWf2A0sLTrlI7qnKD2/XZrj72+HubYOnrsLUb3IhC045SLGwXFT7Jrh7tsJ9YCucLXU5sTQpWXBKXaqNUU5znbEysjbejgYT6+RSFpxSlqDx0NJsroZvuAu+gx3wttbD48vOsMLtZMEpQalOs7aRm81VcAc64R7qMK5KcU4uXVRKFpxSVSy5lnbf3wJ3sAve7iY4NbkLhr8vC06pSWYmSaPi98K7g2n3cLdJu526yrxBI1lwSkmMaVY1bENwvDvXobl/Kzy12Rl/uhtZcEpFgka1Gr8L7/ZG+B/dydS7DR66J4+T/8NowSkVMeBV4Ot0NsB/sh/u7q1wGmvgcQtzCC04JSJPlQ/ejk3wHWiH73AXnPsIDeOcfGRQPyQLTrFLwbDrhdNcy3imFb7BbnjbGozLKqQsOMUsMmPiGqbdXmZO7oFOc2mazgssC06xSgU+XjjVFfDR0riHCU1vU86HEtKVBacYJUvDzTRjMaZxGdO4PU2EKP9p94/JglOEWk0kCY0f7o5muEOEpr8ZzqaqvBb47iQLTrFphTGNzwtvVwPco9uYdrfC01gN5GHg8m5kwSkWrQfCq7EEvD2N8I1sg29fu5mlkK1JdNmUBacYpEBYTea0Nt7uxrWYZu+3oCmSuObbsuAUWgYaXnpVq6mhe+qBS0vj3VK3VqspQmgkC06hpeyJ8YuasdyD7fANMO3ubISn0s+jU6TUUBacQkvQNFbB3dkM//FeuNuYdtdWFDU0kgWnkCIbms7i9DWZFgkFwx7VakpAFpwCaXWFgY2ms/QQmoFuuPs7eDRK53BYcAog9Qurh0bVYN+hTri7W9baPktIFpx8S4OWhMa7/b41aO5vNWvXFHtM831ZcPIpQmMmzjXXwneU7ulAO5wWpt1FVhVORxacfInMIJ40RT3fSA9T7w54mtdrNSUoC04eZIYSogl42uvXBi0PdMLZUg9HS48UqIPvXmXByaVMVZimRnGNCnx7txpL4yVATqWPe790d78FJ1cSNHJPqtXUBAw0Pqbc3xT41CJRmsbGyIKTI30DTVUA3p7N8A9vg7uTabf6aopwtPtuZcHJlZhem/VqNDPh+HazioSyKRRoOku2ZcHJkbQYtbezAb7BLgQe7F+boltGsuBkWWbFT1oVZyszKAbCvuGeteXUSqzAdydZcLIpQaNazZY6M2DpO8AMigCVasp9O1lwsqX1aNhpqDJzuk1fTffmomowz6YsONmQmFGTeYXPBML+kW1mjjdKtCqcjiw4WdBqbAUeBr+aNOcOdMDRFN3KAD1U+bmolHIKToKn4kwygrHEIm7F53EzPmc2XQ8mw5hdjWJxNYbwahxxJM2JW0oyy6kRGnXweR9ogU/gdDWZgl+xzLjMlXL6Ww4L49O4+PQruHruEyyF5rCiiWZ6gP+rdP0IeFx4ya7DOyodF5W87eMtl7d9Hsc8rtt+j9fc1t+6WiyRjxf6XDa7bX1lLC0RaxY52tsG5z6NdhOaMrY2Uk7BmRqbxAtP/QHvvvEupoLTSCQS5n7tUx9BcQmEQYB3VDpe1BCTSt6nrdrjQ50TQLXjQ63jRxVvV3zzOIEiQILIJUZeA1X+DpQZf6JkVVQVVlzjO9gJp6XeLH+/EZRTcEbHxvHkk/+Fl197E6PBIGIrjAXWH0spyTsYVhICWqF1KL4PTo3Hz/vWLJQg2uwJoJGP1XPT7XqnAhV8jgDS669t33+n7MhAw/9kVTRwGXh0J11Ut/kRMbNezQZRXsB59fVzCE6FkBA4P2LCUwc79ag+1ApvKFJI8mCt6JLPDRCOVqcKbd5qbOXWzK3FW4smwlNLyASesU68TIGUTQkc80Mb99XAHexE4KcPwNtaZ+ZFZf3Nilh5A2eK4KysMMZJ0/cz7FQIsXadH1HX9UEdPj8V96zFPowx6KhanUq0u9Xocut4WYcWpxo1tEYBPpaKj7xpvvdtpapwU7VZ9j7w+F44WpC6jNPuH1PRgnM7raxDpTxMnkO362hh5Lo20fJoq+X1Fm8VummNOgUSLZMev1eZ2ZYMgn0jvfDtb+ce3EBm5lsqyZxRgbCPW4Afv5LWpIZWRxBNJpdxMT6FVyM38Ez4itlOL3+Fs5HrOB8b42NBXE/MYzYZQWxVuN3FOaMCX20FvH3NcAe6jMXZqNBIZVVskMNQYF1D67OJcU5kNY6PCYsA+tXch/in+ffw7PJlfBCbwM2VBcwnYwYgQXdbhNazKPM7UEd64O5qKZv2iExVVt9eobXCYcUyLjfz5XjME4RDhUYVIs9Fx/Drpc/xrwsX8Julz/BefByTK2HE+Tc/qASdIgNfzUjwExpNazEFvg1sbaSyPm0MSDy+Cqh1nBO0LdMry7hBd/VZPITz0VGcDn+N5+jOXqN7+zw2hRk+/o0ETaV/bel7rfbZdx+chsqyrwqnozIHZw2e1D85HBNQ899yMm4s0IVoEG9EbhpwdPnnyDgBCiEUX0IswAyqqwG+Qx3waral1hYO+DZ0bJPShjp1BI9cmYY09MU1Pja3GjHxjoLqtyKjOLN8FWfCV3HVs4Tl9mo4mpnALMr8DlSRLz2ST21Ym6sYRQVCVZy1ExQof5mYw/nIGF4KX8ONVgexQ63wDtDadDas/Q6UheYbbVhwvi8P/ZjDzee68DXUoObkDlSO9MLtYTAsS2P1HVlwKFOZTibh9/vQ0bEVTzz+KPYPHURTWwvcCkJjY5q/kgWH0hiaj9C0t7Xi6PAhnHrsEbS3t6GiomLDp90/pg0NjizNCqFxHAdbmptw6MAenHjwGPr6+gw0Vj+uDQ9OLJ7A5oZ6HNi3GyMjR7Bnz560rYzS+wRfI5pcQYyuLpm7Yb+i04YFR9DI0tTX1eDQwf148MHjeOD+3WlbGgMNgbkeXsQ701P4YHYac/HY2oMbQBsSnFRDQHV1FQ4PHMCxY8PYuaMf9fX1aVkbWZbllQRuRiJ4enIUvx6/gacmbuKPwTFcXlrAEh8rd+uzocARMKm4pqqqCjv6+zBy7AgtzS40NW2Gy1T8TtJw6LIsTWQZZ2aCOB2axEuzIV6fwu+D4/i/qQlcWJjHFK1Pwqx8XZ7acBZH0LiuD52d7Thy5DAOHtiHlpYWBALp9epEGMvcikbwzvwMnqaFubC0iOuxGL4gSG/xvv/hfS9MT+LjxTlMRqMm/ilHbRhwZGnkPhKJJFpbWzBw6ABT70Gm3VsZ16Q32q3nB2NRvDc/iz/QsrwyE8K8wOBzFd2Mx+M4Zx4bx/N8/H1en6A7UwBdbo5rQ4Bj3FNS0KygoXETjo8M4eETx9DW1gqfz5d2FjWXiOPDhTn8kVA8HwriO45Ir6EVtnj5F1ohua2nGfe8TTc2SWsU1498lJHKHhwyY6BRw7vPH8DjPz+FR04eR3d3FyorK9O2NAqG35ubwRlC88H8NF3W2lSfH1Kc9uVWPIo3+PdPTdzCi3RftyJh47bKxfKUPTiKaURPQ0M9HhwZxMOEpq+vFzU1NSYdT0cKhi/Q7bwUmsDbc9OMcaK893bAeRDhe95igPwOLdRvJ0bxe26XFxcQK5OYp6zB0fiTx/FgE6HZc/8O/O3jP0Vf73bU1tamDU2Ylubr8CJepKV5jTHNl3Q7S8qW7mipPLQ8wATd2xsLs/hvWp7nGft8RniUrpe6yhYcxTWJlSTqamsIzU48+shDGBgYQHV19fpf3FlKp68vh/ESoTkzHcQlQrNgYpX0YiJJrkn26UPC95/jN/HbsRu4whgoUuJuqyzBUTwTjcZQU1WB3Tt7cfzYEAYHB0xMk66lkW6Ew3idwJzm9hfGKIsESTNP72xtviX+bQqer5nG/4mp+pOj13FxYd5Ys1JV2YEjS6PjWllRgV27duDIkSHs378XmzdvTisQ1kFW+jzBg/z67BReEDThJWNp1qKTu4AmJcHDLczXvRqL4DVmWs/Qdb03O4NQrDSHKcoKHEEjVQQC6O3dhqHBQwaatrY2k3bfSXq20uaZGDOimSlahyDeX5zHFOMULdlyr65F1mqB7vMLWq+X+dpnaH0uMP4J8f1KTWUDjinwKeUmIC2tW3Bk+DBjmoPo6uo0wwt3UgqaEDOhC4Tl2eA43mImNcbbMQNkBpbmr+QxVmuO7/PZ8hLOEs6zBOgi328xITRLR2UBTgoaXTY2NuAArczIyDB6t/eglml3Olrhc2dpWVS8eyY4hjN0U1ejy4gLmjRcXNria2nxBLm+i0sLeIXgKI76gtcTvK9U4CkTcBiX8Iytq6vFvr0P4LGfnER/X68Z/U63KrzIQPUSM5/nQ5P49eQo3RMDVw93Tzah+bYYpC/wg1+i23qFlkeFRcVVpVJhLnlwjLXh5uFBPnpkED/7m0cZ3/TcVQYV5cH6nJZG409PB0extKJpwbmXAuY5puWf0229RHhUYZ4kPKVgeUoaHLNujqkMAw89eAQPnxzBrp07jOW5m7T7Ct3EWQaqchmq2+RTSshD/A4f09r9TqPtczOYZrC8UuSWp2TBScU0six9fT34xc9PYf++Paivr4NXixylIbmFm3QVrxEYBalXePDyr7UKc5Dx1VtmAJXw8HKerrKYm8FKEpy1YFjTWfzYtq0L//DLJxjb7GFg3Ji2pVGtRi0SZ5g9vRiaMIFqqkWiEFK2pYD5KbrLP/LzCGINTRQrOiUJTpxnY6DCz1imCw8dHzZFvoaGTcbSpBsMBxlLnKOVOc2D9BHjG7kLs0JhgcDR+8o5zROe56an8OTkLXxBt6km+GKEp6TAkaWJxRKooKXp6e7A8OBBDA8dNlXhdNo+U1IA+u7ctMmgPqSlmeKZrVaIgkGTEt9fAfNoLIJ3ZqfNaPzX4SVEFMcVmUoMHC1V46C9Y6tp+Rw4dJCuqjvtZizFDPNqxpqfNfWTdxfnMBaLIcr7tfJpsUhZ3lXGXqpeq7I8RZcqy1NMKhlwZG18Pi+am5tMEDx4+BD6+/tMi8SdJFOvkW7FDJ8tzpuK7evMXq7S8izzdYsxf5mjO/6E1lCWRzMnNPWmmILlkgBH0MiiCJJ9e+/HkeFB7N69ywTD6Ug7PJxYYQa1bHqBNSNBtZMlncWFdk8/JH4mDX1OmB7maZyfn8E1WiA1lBWLihocAaNNvcKaKKchhJ88csJYHAXD6UjPV4xwM7qMlxV0ToziY57Bck9FCU1K/GwRXnzIwP2V2RD+PD+HcdN5WBwqeotjCnyUYplTpx7GXlqcuvq69KvCdFE3CM1Z7vx/Hr2Gm5rvRF4UhBa7jIvl9v7iAk5PT5opOcUy3aZowZFBUJEvHI5gx45eUxU+QEuzme5Ja9ikm3bfZBwj1/SbyVFcpnuKqO2ziALhO4rfU4Ov6hr8iOBcWpgvilinKMGRe5GlkYtSW8TDJ45j5OgQWlq2mLQ7XWg0aPgug8sXpibxFi9LWdPxKD5emMObtJwLRVBVLjpwDDQMWrVjKior8fe/fMLMTGhr22oqxenIBMPMoN6eCeH54Dg+WZhZM2ElrBm6qE/CS3h1btq0YBQ6UC46cDTTkgEIWrY044lfPIpjRwZNB5+m6KZradQi8WYoiOdD43hvYRZBZicy+SUrfvYVcj/H76V+of+dvFXwltOiAkeuye930dHegiNDB/HoT05i69ZWM0U33WB4hsHvR3MzeCE0YTIR08GnB0oZHImfX52IE3RZ5/j9roRV24kXzGUVBTipmEZVYa2MpVrNMcY0Wk1C01nShUZV4c9V4JsOmrZPNYYv8rXVcVcOknNa4H66Ypq/QrgcXixYRbloLI5OHM223LWzD4OHDzLtfsCsV5NOi4QGDJSmfkUz/iZ36KsMhNVZpwHD4imZ3btkW2R1QgyONfvifbphzWdX22u+VXBwZG0Uu1QxEO7v247B9ZkJW7ZsWf+L20umWn01WhVCmZM66S7QjM/yzCwnaFJS/UnTiz9ghqXVMK7zBCnE5L6CgiNopEBALRLdGBk5SnAOm2A4HenZaiafVWmeaerp6Qm8szhnoCn5mOaOWsVlWtj3Ge8orsu3CgKOgNGmAp9ckdar0RKx6hnewmwq3ZhG/l0jx1qv5t9Gr+NtBsMafyqFqvA9Sd/P49CyLuIswRmNRo3VzafVKZjFEThxWooWuiTVaYaGBsz1QJq1GjOdhWfa+zTZvxq9hg+WFjDDdLUc3dMPivDMrcTx9fISLjEh0KQ+NbnnSwWzONFY3Fia4eHDeOj4MabgbWZl83Q1nSA0dEvPhsbxfwwUC9n2WUhNMHN8cy6ErzScUq7grLmnpNm0Dt/JEyP4+c8eQ1dXx10NJSwzhrm4uIBnJse4ja/fuwHF/TVGq/0K3dWndFsLtED5quvkFRwBE40lEIkl8cQvThlwujrb72oOlHaLxmxeCI7jPAPieVqejSvPenIQw1WeSGPL4bytgJE3cLRWjb5oU1MjHjlx1MQ123u2mXnd6UITpqXRvCP14r5jVsaK5D0NLTrRSKvV9NOleVxilqUMMx/KCzhJQqOfN9TKWA/s7sdPHzuJnTv7sWlTegU+KbUylqrCb9DSXOHZZRY52oBxzXflQZSnzyXuD7WNBOPMsEzrSG6VW3BoRk3qzX+1tTXo296N4aFDOHz44FpfTZpN5qoK3+COeYfAqF9Y/jxEkNSQZU65Da4Eza4Wq/yC4Kg9Vm0XuVZOwZEbUbCmRY66u9qh5e+HBgdMVTjd6Sx6vqazfDA/Y5ZT03o1WlcvZl7dQiPJvizSjX8dCZuJfNpfuVYeXNUqU+1WMwdKBb7t27ev339nCRrNTPhofhZ/CgXxJuEZYzAcN8BYaL4rD27Q2nyyOIertDy5Vk7B8ftctDRvppUhNEeHsW3btrQCYdmS1HSWTwjNc1MTOMtgOEgTXPZV4UzleGiJE/gyEjHL6eZ6uZScgqOWiMOHBzA0NIiurq60VsaSZGmUQenM+fexG3iZsc1oqq/GWpofkccMwWjcSotxjzMmzGVNJ6fgqD7T39+P7u7utJeJ1VeVpVGviZb9eG560qwtbFbGsrq9aI0V62gFjq+4/3K5x3IKjjImBcFKue+mVvMVz5YXp6fwL7eur6+MRStjDU1aWmAGeo3B8eXwUk77dHIKjiR40h1KkJQZ/D40gf+YuIlpZk8msTTPt+TcUdxP6hD8ihb60+VFZlslDE660lfU3KGzoUm8QWtzjVbHOqe7l1y64BmPRTG6vJyz1tKiAEdf7gYD4XNaDIDbpaWFolzaoxSkk01DEFo06i9MzRUv5kIFB0dp42QsgvOz0zg7EzRrDAfV0XYX7s3qu4qtap/G8N78TM6qyAUFR+niNCG5uDCHM3RR5+dncYtniplab8HJTNxtKltMJmJ4l/tV04dz4fILCo7MqLrXXpqaxOuzIVwjNPq9AwvNvchjEooZuvpPGSTPrjDBoFXXmGE2VRBwTNsov4zmQL00vfYrutdSBT4LTVYkTBKEJxiJmPlm2Q6R8w6OvpAif1U3/0T39AIzqC+jy1BnTe6bATaWNAd/KhrBAk/KbFeR8wqO2iuULWkVidNTE+Znli+GF0y1Uy0YUB+J3bKyrXJTX8618JLJsLQ8bzblodvI7iveRhq41FiKfl7wH69eNh1rWviIX9Uqy5JFqPQ4OFHfgL9r6cBI432oTrOVJR3lFRzVazSNQ7HNx0wVwxrtXn/MKrtStd7LQLmlogIH6hvRX12LQJrdlukor+Bo7EQtoFPRKBaZLhZizvNGkkNwBEtTIIBNPj+8+jWcLCmv4CjGESyyPHpbi01upfzUw38+x4Hr6Fr2Mta8gmNVPipIHceq9GXBscpIFhyrjGTBscpIFhyrjGTBscpIFhyrjGTBscpIFhyrjGTBscpIFhyrjGTBscpAwP8DI2cydUoadDUAAAAASUVORK5CYII=;" parent="1" vertex="1">
                    <mxGeometry x="665" y="360" width="120" height="137.75" as="geometry"/>
                </mxCell>
                <mxCell id="_G9GZHHv7lRjszB7tqQw-17" value="Stores raw data into minio" style="edgeStyle=orthogonalEdgeStyle;rounded=0;orthogonalLoop=1;jettySize=auto;html=1;entryX=1;entryY=0.5;entryDx=0;entryDy=0;startArrow=classic;startFill=1;" parent="1" source="_G9GZHHv7lRjszB7tqQw-4" target="_G9GZHHv7lRjszB7tqQw-5" edge="1">
                    <mxGeometry relative="1" as="geometry">
                        <Array as="points">
                            <mxPoint x="255" y="290"/>
                            <mxPoint x="155" y="290"/>
                            <mxPoint x="155" y="291"/>
                        </Array>
                    </mxGeometry>
                </mxCell>
                <mxCell id="_G9GZHHv7lRjszB7tqQw-21" value="Scrapes web data" style="edgeStyle=orthogonalEdgeStyle;rounded=0;orthogonalLoop=1;jettySize=auto;html=1;labelBackgroundColor=none;labelBorderColor=none;startArrow=classic;startFill=1;" parent="1" source="_G9GZHHv7lRjszB7tqQw-4" target="_G9GZHHv7lRjszB7tqQw-8" edge="1">
                    <mxGeometry x="0.1964" y="-16" relative="1" as="geometry">
                        <mxPoint as="offset"/>
                    </mxGeometry>
                </mxCell>
                <mxCell id="_G9GZHHv7lRjszB7tqQw-23" value="Stores transformed data&lt;br&gt;into Elastic&lt;br&gt;" style="edgeStyle=orthogonalEdgeStyle;rounded=0;orthogonalLoop=1;jettySize=auto;html=1;entryX=0;entryY=0.5;entryDx=0;entryDy=0;labelBackgroundColor=none;labelBorderColor=none;startArrow=none;startFill=0;" parent="1" source="_G9GZHHv7lRjszB7tqQw-4" target="_G9GZHHv7lRjszB7tqQw-2" edge="1">
                    <mxGeometry x="0.0037" y="-70" relative="1" as="geometry">
                        <Array as="points">
                            <mxPoint x="445" y="96"/>
                            <mxPoint x="445" y="283"/>
                        </Array>
                        <mxPoint as="offset"/>
                    </mxGeometry>
                </mxCell>
                <mxCell id="_G9GZHHv7lRjszB7tqQw-4" value="Flow Orchiestration" style="shape=image;verticalLabelPosition=bottom;labelBackgroundColor=none;verticalAlign=top;aspect=fixed;imageAspect=0;image=https://www.dagster.io/images-oct/dagster_logo_primary.svg;horizontal=1;" parent="1" vertex="1">
                    <mxGeometry x="245" y="76.71000000000004" width="180" height="38.12" as="geometry"/>
                </mxCell>
                <mxCell id="_G9GZHHv7lRjszB7tqQw-5" value="" style="shape=image;verticalLabelPosition=bottom;labelBackgroundColor=default;verticalAlign=top;aspect=fixed;imageAspect=0;image=https://blog.min.io/assets/img/logo.svg;" parent="1" vertex="1">
                    <mxGeometry x="-0.15000000000000036" y="280" width="150.3" height="22.54" as="geometry"/>
                </mxCell>
                <mxCell id="_G9GZHHv7lRjszB7tqQw-7" value="" style="sketch=0;aspect=fixed;html=1;points=[];align=center;image;fontSize=12;image=img/lib/mscae/Docker.svg;" parent="1" vertex="1">
                    <mxGeometry x="702" y="-120" width="120" height="98.4" as="geometry"/>
                </mxCell>
                <mxCell id="_G9GZHHv7lRjszB7tqQw-8" value="" style="shape=image;verticalLabelPosition=bottom;labelBackgroundColor=#ffffff;verticalAlign=top;aspect=fixed;imageAspect=0;image=https://cdn1.iconfinder.com/data/icons/business-startup-51/64/814-512.png;" parent="1" vertex="1">
                    <mxGeometry x="23.800000000000004" y="35.76999999999998" width="120" height="120" as="geometry"/>
                </mxCell>
                <mxCell id="_G9GZHHv7lRjszB7tqQw-14" value="&#10;&lt;br style=&quot;color: rgb(0, 0, 0); font-family: Helvetica; font-size: 11px; font-style: normal; font-variant-ligatures: normal; font-variant-caps: normal; font-weight: 400; letter-spacing: normal; orphans: 2; text-align: center; text-indent: 0px; text-transform: none; widows: 2; word-spacing: 0px; -webkit-text-stroke-width: 0px; text-decoration-thickness: initial; text-decoration-style: initial; text-decoration-color: initial;&quot;&gt;&lt;span style=&quot;color: rgb(0, 0, 0); font-family: Helvetica; font-style: normal; font-variant-ligatures: normal; font-variant-caps: normal; font-weight: 400; letter-spacing: normal; orphans: 2; text-align: center; text-indent: 0px; text-transform: none; widows: 2; word-spacing: 0px; -webkit-text-stroke-width: 0px; text-decoration-thickness: initial; text-decoration-style: initial; text-decoration-color: initial; font-size: 13px; float: none; display: inline !important;&quot;&gt;Retriving data for user&lt;/span&gt;&lt;br style=&quot;color: rgb(0, 0, 0); font-family: Helvetica; font-size: 11px; font-style: normal; font-variant-ligatures: normal; font-variant-caps: normal; font-weight: 400; letter-spacing: normal; orphans: 2; text-align: center; text-indent: 0px; text-transform: none; widows: 2; word-spacing: 0px; -webkit-text-stroke-width: 0px; text-decoration-thickness: initial; text-decoration-style: initial; text-decoration-color: initial;&quot;&gt;&#10;&#10;" style="edgeStyle=orthogonalEdgeStyle;rounded=0;orthogonalLoop=1;jettySize=auto;html=1;labelBackgroundColor=none;startArrow=classic;startFill=1;" parent="1" source="_G9GZHHv7lRjszB7tqQw-9" target="_G9GZHHv7lRjszB7tqQw-2" edge="1">
                    <mxGeometry x="-0.3602" y="-17" relative="1" as="geometry">
                        <mxPoint as="offset"/>
                    </mxGeometry>
                </mxCell>
                <mxCell id="_G9GZHHv7lRjszB7tqQw-9" value="" style="sketch=0;pointerEvents=1;shadow=0;dashed=0;html=1;strokeColor=none;fillColor=#69A0DF;labelPosition=center;verticalLabelPosition=bottom;verticalAlign=top;align=center;outlineConnect=0;shape=mxgraph.veeam2.restful_api;aspect=fixed;" parent="1" vertex="1">
                    <mxGeometry x="665" y="76.71000000000004" width="120" height="120" as="geometry"/>
                </mxCell>
                <mxCell id="_G9GZHHv7lRjszB7tqQw-12" value="&lt;br&gt;&lt;span style=&quot;color: rgb(0, 0, 0); font-family: Helvetica; font-size: 13px; font-style: normal; font-variant-ligatures: normal; font-variant-caps: normal; font-weight: 400; letter-spacing: normal; orphans: 2; text-align: center; text-indent: 0px; text-transform: none; widows: 2; word-spacing: 0px; -webkit-text-stroke-width: 0px; text-decoration-thickness: initial; text-decoration-style: initial; text-decoration-color: initial; float: none; display: inline !important;&quot;&gt;User&amp;nbsp;retrieving&amp;nbsp; data&lt;br&gt;via API&lt;/span&gt;" style="edgeStyle=orthogonalEdgeStyle;rounded=0;orthogonalLoop=1;jettySize=auto;html=1;labelBackgroundColor=none;" parent="1" source="_G9GZHHv7lRjszB7tqQw-10" target="_G9GZHHv7lRjszB7tqQw-9" edge="1">
                    <mxGeometry x="0.2858" y="-30" relative="1" as="geometry">
                        <Array as="points">
                            <mxPoint x="965" y="130"/>
                        </Array>
                        <mxPoint as="offset"/>
                    </mxGeometry>
                </mxCell>
                <mxCell id="_G9GZHHv7lRjszB7tqQw-13" value="&lt;br&gt;&lt;span style=&quot;color: rgb(0, 0, 0); font-family: Helvetica; font-size: 13px; font-style: normal; font-variant-ligatures: normal; font-variant-caps: normal; font-weight: 400; letter-spacing: normal; orphans: 2; text-align: center; text-indent: 0px; text-transform: none; widows: 2; word-spacing: 0px; -webkit-text-stroke-width: 0px; text-decoration-thickness: initial; text-decoration-style: initial; text-decoration-color: initial; float: none; display: inline !important;&quot;&gt;User&amp;nbsp;retrieving&amp;nbsp; data&lt;br&gt;via Kibana&lt;/span&gt;" style="edgeStyle=orthogonalEdgeStyle;rounded=0;orthogonalLoop=1;jettySize=auto;html=1;labelBorderColor=none;labelBackgroundColor=none;" parent="1" edge="1">
                    <mxGeometry x="0.2858" y="-30" relative="1" as="geometry">
                        <mxPoint x="955" y="330" as="sourcePoint"/>
                        <mxPoint x="785" y="440.0526315789475" as="targetPoint"/>
                        <Array as="points">
                            <mxPoint x="955" y="440"/>
                        </Array>
                        <mxPoint as="offset"/>
                    </mxGeometry>
                </mxCell>
                <mxCell id="_G9GZHHv7lRjszB7tqQw-10" value="" style="shape=image;html=1;verticalAlign=top;verticalLabelPosition=bottom;labelBackgroundColor=#ffffff;imageAspect=0;aspect=fixed;image=https://cdn4.iconfinder.com/data/icons/essential-app-2/16/user-avatar-human-admin-login-128.png;fillColor=none;" parent="1" vertex="1">
                    <mxGeometry x="915" y="230" width="100" height="100" as="geometry"/>
                </mxCell>
            </root>
        </mxGraphModel>
    </diagram>
</mxfile>